<svg width="150" height="70" viewBox="0 0 150 70" fill="none" xmlns="http://www.w3.org/2000/svg">
<path d="M129.711 42.9892C129.563 42.8557 129.389 42.7529 129.2 42.6866C129.012 42.6203 128.812 42.5918 128.612 42.6028C128.413 42.6137 128.217 42.6639 128.037 42.7505C127.857 42.837 127.695 42.9582 127.562 43.1071C125.975 44.864 124.037 46.2684 121.873 47.2296C119.709 48.1908 117.368 48.6875 115 48.6875C112.632 48.6875 110.291 48.1908 108.127 47.2296C105.963 46.2684 104.025 44.864 102.438 43.1071C102.168 42.8054 101.788 42.6235 101.384 42.6014C100.979 42.5793 100.583 42.7188 100.281 42.9892C99.9793 43.2596 99.7973 43.6388 99.7752 44.0433C99.7531 44.4478 99.8926 44.8446 100.163 45.1462C102.036 47.2219 104.323 48.8813 106.878 50.0171C109.432 51.1529 112.197 51.7398 114.992 51.7398C117.788 51.7398 120.552 51.1529 123.107 50.0171C125.661 48.8813 127.949 47.2219 129.822 45.1462C129.957 44.9977 130.061 44.8239 130.129 44.6349C130.196 44.4458 130.226 44.2453 130.216 44.0447C130.205 43.8442 130.155 43.6477 130.069 43.4666C129.982 43.2854 129.861 43.1232 129.711 42.9892Z" fill="#FF3333"/>
<path d="M115 0C95.7005 0 80 15.7005 80 35C80 54.2995 95.7005 70 115 70C134.299 70 150 54.2995 150 35C150 15.7005 134.299 0 115 0ZM115 66.9565C97.3783 66.9565 83.0435 52.6217 83.0435 35C83.0435 17.3783 97.3783 3.04348 115 3.04348C132.622 3.04348 146.957 17.3783 146.957 35C146.957 52.6217 132.622 66.9565 115 66.9565Z" fill="#FF3333"/>
<path d="M127.174 24.3477C125.156 24.3477 123.221 25.1493 121.794 26.5762C120.367 28.0031 119.565 29.9384 119.565 31.9564C119.565 32.3599 119.726 32.747 120.011 33.0324C120.297 33.3178 120.684 33.4781 121.087 33.4781C121.491 33.4781 121.878 33.3178 122.163 33.0324C122.449 32.747 122.609 32.3599 122.609 31.9564C122.609 30.7456 123.09 29.5844 123.946 28.7283C124.802 27.8721 125.963 27.3911 127.174 27.3911C128.385 27.3911 129.546 27.8721 130.402 28.7283C131.258 29.5844 131.739 30.7456 131.739 31.9564C131.739 32.3599 131.9 32.747 132.185 33.0324C132.47 33.3178 132.857 33.4781 133.261 33.4781C133.665 33.4781 134.052 33.3178 134.337 33.0324C134.622 32.747 134.783 32.3599 134.783 31.9564C134.783 29.9384 133.981 28.0031 132.554 26.5762C131.127 25.1493 129.192 24.3477 127.174 24.3477Z" fill="#FF3333"/>
<path d="M107.391 31.9564C107.391 32.3599 107.552 32.747 107.837 33.0324C108.122 33.3178 108.509 33.4781 108.913 33.4781C109.317 33.4781 109.704 33.3178 109.989 33.0324C110.274 32.747 110.435 32.3599 110.435 31.9564C110.435 29.9384 109.633 28.0031 108.206 26.5762C106.779 25.1493 104.844 24.3477 102.826 24.3477C100.808 24.3477 98.8727 25.1493 97.4458 26.5762C96.0189 28.0031 95.2173 29.9384 95.2173 31.9564C95.2173 32.3599 95.3776 32.747 95.663 33.0324C95.9484 33.3178 96.3354 33.4781 96.739 33.4781C97.1426 33.4781 97.5297 33.3178 97.8151 33.0324C98.1004 32.747 98.2608 32.3599 98.2608 31.9564C98.2608 30.7456 98.7417 29.5844 99.5979 28.7283C100.454 27.8721 101.615 27.3911 102.826 27.3911C104.037 27.3911 105.198 27.8721 106.054 28.7283C106.91 29.5844 107.391 30.7456 107.391 31.9564Z" fill="#FF3333"/>
<g clip-path="url(#clip0)">
<path d="M48.1051 36.1611C47.8727 36.1611 47.6425 36.1157 47.4278 36.0275C47.213 35.9394 47.0179 35.8102 46.8536 35.6473C46.6892 35.4844 46.5589 35.291 46.4699 35.0782C46.381 34.8654 46.3352 34.6373 46.3352 34.4069V23.6333H35.4647C34.9953 23.6333 34.5451 23.4485 34.2132 23.1195C33.8813 22.7905 33.6948 22.3444 33.6948 21.8791C33.6948 21.4139 33.8813 20.9677 34.2132 20.6388C34.5451 20.3098 34.9953 20.125 35.4647 20.125H48.1051C48.5743 20.1255 49.0242 20.3105 49.356 20.6394C49.6878 20.9682 49.8744 21.4141 49.875 21.8791V34.4109C49.8739 34.8755 49.687 35.3206 49.3552 35.6487C49.0233 35.9768 48.5738 36.1611 48.1051 36.1611Z" fill="#1D1D1D"/>
<path d="M21.8929 49.8751C21.5426 49.8751 21.2002 49.7721 20.909 49.5791C20.6179 49.3861 20.391 49.1118 20.2572 48.7909C20.1234 48.4701 20.0887 48.1171 20.1575 47.7767C20.2262 47.4363 20.3954 47.1237 20.6434 46.8786L46.7443 21.0102C47.0769 20.6845 47.526 20.5025 47.9936 20.5039C48.4611 20.5053 48.9091 20.69 49.2397 21.0177C49.5703 21.3453 49.7567 21.7893 49.7581 22.2527C49.7595 22.7161 49.5759 23.1612 49.2473 23.4909L23.1464 49.3613C22.8135 49.69 22.3628 49.8747 21.8929 49.8751Z" fill="#1D1D1D"/>
</g>
<circle cx="35" cy="35" r="33.5" stroke="#1D1D1D" stroke-width="3"/>
<defs>
<clipPath id="clip0">
<rect width="29.75" height="29.75" fill="white" transform="translate(20.125 20.125)"/>
</clipPath>
</defs>
</svg>
