<svg width="65" height="30" viewBox="0 0 65 30" fill="none" xmlns="http://www.w3.org/2000/svg">
<path d="M56.3049 18.424C56.2411 18.3668 56.1666 18.3228 56.0858 18.2943C56.005 18.2659 55.9194 18.2537 55.8338 18.2584C55.7483 18.2631 55.6645 18.2846 55.5872 18.3217C55.51 18.3588 55.4408 18.4107 55.3837 18.4745C54.7034 19.2275 53.8728 19.8294 52.9455 20.2413C52.0181 20.6533 51.0147 20.8661 50 20.8661C48.9853 20.8661 47.9818 20.6533 47.0545 20.2413C46.1271 19.8294 45.2965 19.2275 44.6163 18.4745C44.5004 18.3453 44.3379 18.2673 44.1645 18.2578C43.9912 18.2483 43.8211 18.3081 43.6918 18.424C43.5625 18.5399 43.4846 18.7024 43.4751 18.8758C43.4656 19.0491 43.5254 19.2192 43.6413 19.3485C44.4439 20.238 45.4243 20.9492 46.5191 21.436C47.6138 21.9228 48.7986 22.1743 49.9967 22.1743C51.1948 22.1743 52.3796 21.9228 53.4744 21.436C54.5692 20.9492 55.5496 20.238 56.3522 19.3485C56.41 19.2848 56.4548 19.2103 56.4837 19.1293C56.5127 19.0483 56.5254 18.9623 56.521 18.8764C56.5166 18.7905 56.4952 18.7062 56.4581 18.6286C56.421 18.551 56.369 18.4814 56.3049 18.424Z" fill="#FF3333"/>
<path d="M50 0C41.7288 0 35 6.7288 35 15C35 23.2712 41.7288 30 50 30C58.2712 30 65 23.2712 65 15C65 6.7288 58.2712 0 50 0ZM50 28.6957C42.4478 28.6957 36.3043 22.5522 36.3043 15C36.3043 7.44783 42.4478 1.30435 50 1.30435C57.5522 1.30435 63.6957 7.44783 63.6957 15C63.6957 22.5522 57.5522 28.6957 50 28.6957Z" fill="#FF3333"/>
<path d="M55.2174 10.4351C54.3526 10.4351 53.5232 10.7786 52.9116 11.3901C52.3001 12.0017 51.9565 12.8311 51.9565 13.6959C51.9565 13.8689 52.0253 14.0348 52.1476 14.1571C52.2699 14.2794 52.4357 14.3481 52.6087 14.3481C52.7817 14.3481 52.9476 14.2794 53.0699 14.1571C53.1922 14.0348 53.2609 13.8689 53.2609 13.6959C53.2609 13.177 53.467 12.6794 53.8339 12.3125C54.2009 11.9455 54.6985 11.7394 55.2174 11.7394C55.7363 11.7394 56.234 11.9455 56.6009 12.3125C56.9678 12.6794 57.1739 13.177 57.1739 13.6959C57.1739 13.8689 57.2426 14.0348 57.365 14.1571C57.4873 14.2794 57.6531 14.3481 57.8261 14.3481C57.9991 14.3481 58.165 14.2794 58.2873 14.1571C58.4096 14.0348 58.4783 13.8689 58.4783 13.6959C58.4783 12.8311 58.1347 12.0017 57.5232 11.3901C56.9117 10.7786 56.0822 10.4351 55.2174 10.4351Z" fill="#FF3333"/>
<path d="M46.7394 13.6959C46.7394 13.8689 46.8081 14.0348 46.9304 14.1571C47.0527 14.2794 47.2186 14.3481 47.3915 14.3481C47.5645 14.3481 47.7304 14.2794 47.8527 14.1571C47.975 14.0348 48.0437 13.8689 48.0437 13.6959C48.0437 12.8311 47.7002 12.0017 47.0886 11.3901C46.4771 10.7786 45.6477 10.4351 44.7828 10.4351C43.918 10.4351 43.0886 10.7786 42.4771 11.3901C41.8655 12.0017 41.522 12.8311 41.522 13.6959C41.522 13.8689 41.5907 14.0348 41.713 14.1571C41.8353 14.2794 42.0012 14.3481 42.1741 14.3481C42.3471 14.3481 42.513 14.2794 42.6353 14.1571C42.7576 14.0348 42.8263 13.8689 42.8263 13.6959C42.8263 13.177 43.0325 12.6794 43.3994 12.3125C43.7663 11.9455 44.2639 11.7394 44.7828 11.7394C45.3017 11.7394 45.7994 11.9455 46.1663 12.3125C46.5332 12.6794 46.7394 13.177 46.7394 13.6959Z" fill="#FF3333"/>
<g clip-path="url(#clip0)">
<path d="M20.6163 15.4976C20.5166 15.4976 20.418 15.4782 20.326 15.4404C20.2339 15.4026 20.1503 15.3472 20.0799 15.2774C20.0095 15.2076 19.9536 15.1247 19.9155 15.0335C19.8773 14.9423 19.8577 14.8446 19.8577 14.7458V10.1285H15.199C14.9978 10.1285 14.8048 10.0493 14.6626 9.90835C14.5203 9.76737 14.4404 9.57615 14.4404 9.37677C14.4404 9.17739 14.5203 8.98617 14.6626 8.84519C14.8048 8.7042 14.9978 8.625 15.199 8.625H20.6163C20.8174 8.62523 21.0102 8.7045 21.1524 8.84544C21.2946 8.98638 21.3745 9.17746 21.3748 9.37677V14.7475C21.3743 14.9466 21.2942 15.1374 21.152 15.278C21.0098 15.4186 20.8171 15.4976 20.6163 15.4976Z" fill="#1D1D1D"/>
<path d="M9.38253 21.3753C9.23241 21.3752 9.08566 21.3311 8.96087 21.2484C8.83608 21.1657 8.73886 21.0481 8.68153 20.9106C8.62419 20.7731 8.60931 20.6218 8.63878 20.4759C8.66824 20.33 8.74073 20.1961 8.84705 20.091L20.0331 9.00458C20.1757 8.865 20.3682 8.787 20.5685 8.7876C20.7689 8.7882 20.9609 8.86736 21.1026 9.00779C21.2443 9.14821 21.3241 9.3385 21.3248 9.53709C21.3254 9.73569 21.2467 9.92645 21.1058 10.0677L9.91975 21.1551C9.77707 21.2959 9.58393 21.3751 9.38253 21.3753Z" fill="#1D1D1D"/>
</g>
<circle cx="15" cy="15" r="14.5" stroke="black"/>
<defs>
<clipPath id="clip0">
<rect width="12.75" height="12.75" fill="white" transform="translate(8.625 8.625)"/>
</clipPath>
</defs>
</svg>
