<svg width="12" height="12" viewBox="0 0 12 12" fill="none" xmlns="http://www.w3.org/2000/svg">
<g clip-path="url(#clip0)">
<path d="M8.21236 8.57061C8.17044 8.52967 8.13692 8.48095 8.11372 8.42723C8.09052 8.3735 8.07809 8.31583 8.07713 8.25751C8.07618 8.19918 8.08673 8.14134 8.10818 8.08729C8.12962 8.03324 8.16154 7.98403 8.20212 7.94249L10.0998 5.99938L8.13925 4.08463C8.05459 4.00195 8.00595 3.88932 8.00403 3.77153C8.00211 3.65373 8.04707 3.54041 8.12901 3.45651C8.21096 3.3726 8.32318 3.32498 8.44099 3.32411C8.5588 3.32324 8.67254 3.36921 8.7572 3.45189L11.037 5.67839C11.1215 5.76114 11.1701 5.87374 11.172 5.9915C11.1739 6.10925 11.129 6.22254 11.0472 6.30651L8.83984 8.56672C8.75782 8.65031 8.6457 8.69767 8.52806 8.6984C8.41043 8.69913 8.29689 8.65317 8.21236 8.57061Z" fill="white"/>
<path d="M1.06855 6.42717C1.00537 6.36547 0.961764 6.28657 0.943244 6.20048C0.924724 6.11438 0.932126 6.02495 0.964512 5.94352C0.996898 5.86209 1.05281 5.79231 1.12517 5.74302C1.19753 5.69374 1.28309 5.66716 1.37101 5.66665L10.635 5.59855C10.7524 5.5984 10.8654 5.64468 10.9495 5.72729C11.0336 5.8099 11.0818 5.92212 11.0838 6.03945C11.0857 6.15678 11.0411 6.26969 10.9597 6.35351C10.8783 6.43733 10.7668 6.48527 10.6495 6.48684L1.38513 6.5553C1.26719 6.55594 1.15337 6.50988 1.06855 6.42717Z" fill="white"/>
</g>
<defs>
<clipPath id="clip0">
<rect width="7.5" height="7.5" fill="white" transform="translate(5.99023 0.75) rotate(44.3226)"/>
</clipPath>
</defs>
</svg>
