<svg width="43" height="43" viewBox="0 0 43 43" fill="none" xmlns="http://www.w3.org/2000/svg">
<g clip-path="url(#clip0)">
<path d="M29.848 31.2827C29.6803 31.1189 29.5462 30.924 29.4534 30.7091C29.3606 30.4943 29.3109 30.2636 29.3071 30.0303C29.3033 29.797 29.3455 29.5656 29.4312 29.3494C29.517 29.1332 29.6447 28.9364 29.807 28.7702L37.3978 20.9978L29.5555 13.3388C29.2169 13.008 29.0223 12.5575 29.0146 12.0863C29.007 11.6152 29.1868 11.1619 29.5146 10.8263C29.8424 10.4906 30.2912 10.3001 30.7625 10.2967C31.2337 10.2932 31.6887 10.4771 32.0273 10.8078L41.1465 19.7138C41.4846 20.0448 41.6788 20.4952 41.6865 20.9662C41.6942 21.4373 41.5147 21.8904 41.1874 22.2263L32.3579 31.2671C32.0298 31.6015 31.5813 31.7909 31.1108 31.7938C30.6402 31.7967 30.1861 31.6129 29.848 31.2827Z" fill="white"/>
<path d="M1.27517 22.7082C1.02247 22.4614 0.848034 22.1458 0.773954 21.8014C0.699873 21.457 0.72948 21.0993 0.859024 20.7736C0.988568 20.4479 1.21222 20.1687 1.50167 19.9716C1.79112 19.7745 2.13334 19.6681 2.485 19.6661L39.541 19.3937C40.0104 19.3931 40.4627 19.5782 40.799 19.9087C41.1353 20.2391 41.3284 20.688 41.336 21.1573C41.3436 21.6266 41.1653 22.0783 40.8398 22.4136C40.5143 22.7488 40.0682 22.9406 39.5989 22.9469L2.54149 23.2207C2.06972 23.2233 1.61444 23.039 1.27517 22.7082Z" fill="white"/>
</g>
<defs>
<clipPath id="clip0">
<rect width="30" height="30" fill="white" transform="translate(20.9609) rotate(44.3226)"/>
</clipPath>
</defs>
</svg>
