<svg width="43" height="43" viewBox="0 0 43 43" fill="none" xmlns="http://www.w3.org/2000/svg">
<g clip-path="url(#clip0)">
<path d="M12.5754 31.2827C12.7431 31.1189 12.8771 30.924 12.9699 30.7091C13.0627 30.4943 13.1125 30.2636 13.1163 30.0303C13.1201 29.797 13.0779 29.5656 12.9921 29.3494C12.9063 29.1332 12.7786 28.9364 12.6163 28.7702L5.02554 20.9978L12.8678 13.3388C13.2065 13.008 13.401 12.5575 13.4087 12.0863C13.4164 11.6152 13.2365 11.1619 12.9088 10.8263C12.581 10.4906 12.1321 10.3001 11.6609 10.2967C11.1896 10.2932 10.7346 10.4771 10.396 10.8078L1.27688 19.7138C0.938726 20.0448 0.74451 20.4952 0.736834 20.9662C0.729158 21.4373 0.908651 21.8904 1.23593 22.2263L10.0655 31.2671C10.3935 31.6015 10.842 31.7909 11.3126 31.7938C11.7831 31.7967 12.2372 31.6129 12.5754 31.2827Z" fill="white"/>
<path d="M41.1482 22.7082C41.4009 22.4614 41.5753 22.1458 41.6494 21.8014C41.7235 21.457 41.6939 21.0993 41.5643 20.7736C41.4348 20.4479 41.2111 20.1687 40.9217 19.9716C40.6322 19.7745 40.29 19.6681 39.9383 19.6661L2.88232 19.3937C2.41292 19.3931 1.96068 19.5782 1.62436 19.9087C1.28805 20.2391 1.09499 20.688 1.08734 21.1573C1.07969 21.6266 1.25808 22.0783 1.58354 22.4136C1.90901 22.7488 2.3551 22.9406 2.82442 22.9469L39.8818 23.2207C40.3536 23.2233 40.8089 23.039 41.1482 22.7082Z" fill="white"/>
</g>
<defs>
<clipPath id="clip0">
<rect width="30" height="30" fill="white" transform="matrix(-0.715417 0.698698 0.698698 0.715417 21.4624 0)"/>
</clipPath>
</defs>
</svg>
