<svg width="15" height="15" viewBox="0 0 15 15" fill="none" xmlns="http://www.w3.org/2000/svg">
<g clip-path="url(#clip0)">
<path d="M4.52545 11.0944C4.58135 11.0398 4.62604 10.9748 4.65697 10.9032C4.68791 10.8316 4.70448 10.7547 4.70575 10.6769C4.70702 10.5992 4.69295 10.522 4.66436 10.45C4.63577 10.3779 4.5932 10.3123 4.5391 10.2569L2.00884 7.66608L4.62293 5.11309C4.73581 5.00284 4.80066 4.85267 4.80322 4.69561C4.80578 4.53855 4.74584 4.38746 4.63658 4.27559C4.52732 4.16371 4.37769 4.10021 4.22061 4.09906C4.06353 4.0979 3.91187 4.15919 3.79899 4.26943L0.759284 7.2381C0.646567 7.34843 0.581829 7.49857 0.57927 7.65557C0.576711 7.81258 0.636542 7.96363 0.745636 8.0756L3.68881 11.0892C3.79817 11.2007 3.94767 11.2638 4.10451 11.2648C4.26136 11.2657 4.41274 11.2045 4.52545 11.0944Z" fill="white"/>
<path d="M14.05 8.23582C14.1343 8.15355 14.1924 8.04836 14.2171 7.93356C14.2418 7.81877 14.2319 7.69953 14.1888 7.59095C14.1456 7.48238 14.071 7.38934 13.9745 7.32362C13.8781 7.25791 13.764 7.22247 13.6468 7.2218L1.29476 7.131C1.13829 7.1308 0.987542 7.19251 0.875438 7.30265C0.763334 7.41279 0.69898 7.56242 0.69643 7.71886C0.693881 7.8753 0.753343 8.02584 0.861831 8.13761C0.970319 8.24937 1.11902 8.31328 1.27546 8.31538L13.6279 8.40666C13.7852 8.40752 13.937 8.3461 14.05 8.23582Z" fill="white"/>
</g>
<defs>
<clipPath id="clip0">
<rect width="10" height="10" fill="white" transform="matrix(-0.715417 0.698698 0.698698 0.715417 7.48779 0.666748)"/>
</clipPath>
</defs>
</svg>
