<svg width="58" height="58" viewBox="0 0 58 58" fill="none" xmlns="http://www.w3.org/2000/svg">
<g clip-path="url(#clip0)">
<path d="M29.9251 23.4978C30.0503 23.5199 30.1746 23.5476 30.2985 23.5778L34.9772 4.69534C34.4274 4.56051 33.8711 4.44122 33.3054 4.34148C32.7398 4.24175 32.1743 4.16322 31.6134 4.10222L29.5518 23.4461C29.6741 23.4593 29.7992 23.4756 29.9251 23.4978Z" fill="#FF3333"/>
<path d="M28.3633 23.4436L26.2645 4.09114C25.131 4.2102 24.0073 4.40646 22.9012 4.67852L27.6176 23.5741C27.8629 23.5138 28.112 23.4701 28.3633 23.4436Z" fill="#FF3333"/>
<path d="M26.5042 23.9772L17.8806 6.49725C16.858 6.99588 15.8705 7.56266 14.925 8.19371L25.8486 24.3542C26.0584 24.2141 26.2774 24.0882 26.5042 23.9772Z" fill="#FF3333"/>
<path d="M24.9386 25.11L10.8293 11.606C10.0394 12.4217 9.30627 13.29 8.63492 14.2048L24.4519 25.6869C24.6007 25.4838 24.7633 25.291 24.9386 25.11Z" fill="#FF3333"/>
<path d="M23.8596 26.709L5.96556 18.809C5.50583 19.8456 5.11752 20.9122 4.80329 22.0015L23.6017 27.4169C23.6714 27.1753 23.7575 26.9388 23.8596 26.709Z" fill="#FF3333"/>
<path d="M23.397 28.5792L3.88045 27.2361C3.80318 28.3671 3.80327 29.5022 3.88075 30.6335L23.3976 29.3301C23.3802 29.08 23.38 28.8292 23.397 28.5792Z" fill="#FF3333"/>
<path d="M23.6039 30.4954L4.81323 35.8779C5.13122 36.9671 5.52318 38.0338 5.9864 39.0705L23.8634 31.2065C23.7609 30.9755 23.6742 30.738 23.6039 30.4954Z" fill="#FF3333"/>
<path d="M24.4595 32.225L8.66735 43.6748C9.34007 44.5912 10.0741 45.4615 10.8645 46.2798L24.9478 32.8037C24.7722 32.6218 24.6091 32.4285 24.4595 32.225Z" fill="#FF3333"/>
<path d="M25.8558 33.5633L14.9612 49.7062C15.9074 50.3405 16.8963 50.9092 17.9208 51.4085L26.5126 33.9412C26.2853 33.8302 26.0659 33.704 25.8558 33.5633Z" fill="#FF3333"/>
<path d="M27.9989 34.424C27.8736 34.4019 27.7493 34.3742 27.6254 34.344L22.9467 53.2264C23.4959 53.3612 24.0529 53.4806 24.6185 53.5803C25.1841 53.68 25.7496 53.7586 26.3105 53.8196L28.3721 34.4757C28.2492 34.4623 28.1241 34.4461 27.9989 34.424Z" fill="#FF3333"/>
<path d="M29.5611 34.4787L31.6606 53.8313C32.7941 53.7123 33.9178 53.516 35.024 53.2439L30.3075 34.3483C30.062 34.4086 29.8127 34.4522 29.5611 34.4787Z" fill="#FF3333"/>
<path d="M31.4211 33.9455L40.0447 51.4255C41.0673 50.9268 42.0548 50.36 43.0003 49.729L32.0767 33.5685C31.8668 33.7084 31.6478 33.8344 31.4211 33.9455Z" fill="#FF3333"/>
<path d="M32.9853 32.8122L47.0946 46.3162C47.8844 45.5005 48.6175 44.6322 49.2889 43.7174L33.472 32.2353C33.323 32.4383 33.1604 32.631 32.9853 32.8122Z" fill="#FF3333"/>
<path d="M34.3224 30.5057C34.2528 30.7472 34.1666 30.9837 34.0645 31.2135L51.9586 39.1135C52.4183 38.0769 52.8066 37.0103 53.1209 35.9211L34.3224 30.5057Z" fill="#FF3333"/>
<path d="M34.5271 29.3433L54.0437 30.6864C54.1209 29.5554 54.1208 28.4203 54.0434 27.289L34.5265 28.5924C34.5439 28.8425 34.5441 29.0933 34.5271 29.3433Z" fill="#FF3333"/>
<path d="M34.32 27.4268L53.1106 22.0443C52.7926 20.9551 52.4007 19.8884 51.9375 18.8518L34.0605 26.7157C34.163 26.9467 34.2497 27.1843 34.32 27.4268Z" fill="#FF3333"/>
<path d="M33.4644 25.6967L49.2565 14.247C48.5838 13.3306 47.8497 12.4602 47.0594 11.6419L32.9773 25.1183C33.1523 25.3002 33.315 25.4935 33.4644 25.6967Z" fill="#FF3333"/>
<path d="M32.0682 24.359L42.9628 8.21603C42.0163 7.58225 41.0275 7.01349 40.0032 6.51376L31.412 23.9812C31.6391 24.0922 31.8583 24.2184 32.0682 24.359Z" fill="#FF3333"/>
</g>
<defs>
<clipPath id="clip0">
<rect width="50" height="50" fill="white" transform="translate(8.68262) rotate(10)"/>
</clipPath>
</defs>
</svg>
