<svg width="1012" height="1721" viewBox="0 0 1012 1721" fill="none" xmlns="http://www.w3.org/2000/svg">
<g opacity="0.5" filter="url(#filter0_f)">
<circle cx="547.408" cy="1173.41" r="247" transform="rotate(150 547.408 1173.41)" fill="#CEFFBD"/>
</g>
<g opacity="0.5" filter="url(#filter1_f)">
<circle cx="932.806" cy="547.125" r="247" transform="rotate(150 932.806 547.125)" fill="#FFBABA"/>
</g>
<g clip-path="url(#clip0)">
<path d="M883.925 214.498C884.05 214.52 884.175 214.548 884.298 214.578L888.977 195.696C888.427 195.561 887.871 195.441 887.305 195.342C886.74 195.242 886.174 195.163 885.613 195.102L883.552 214.446C883.674 214.46 883.799 214.476 883.925 214.498Z" fill="#4D9F30"/>
<path d="M882.363 214.444L880.264 195.091C879.131 195.21 878.007 195.407 876.901 195.679L881.618 214.574C881.863 214.514 882.112 214.47 882.363 214.444Z" fill="#4D9F30"/>
<path d="M880.504 214.977L871.881 197.497C870.858 197.996 869.871 198.562 868.925 199.193L879.849 215.354C880.058 215.214 880.277 215.088 880.504 214.977Z" fill="#4D9F30"/>
<path d="M878.939 216.11L864.829 202.606C864.039 203.422 863.306 204.29 862.635 205.205L878.452 216.687C878.601 216.484 878.763 216.291 878.939 216.11Z" fill="#4D9F30"/>
<path d="M877.86 217.709L859.966 209.809C859.506 210.845 859.118 211.912 858.803 213.001L877.602 218.417C877.671 218.175 877.757 217.939 877.86 217.709Z" fill="#4D9F30"/>
<path d="M877.397 219.579L857.88 218.236C857.803 219.367 857.803 220.502 857.881 221.633L877.398 220.33C877.38 220.08 877.38 219.829 877.397 219.579Z" fill="#4D9F30"/>
<path d="M877.604 221.495L858.813 226.878C859.131 227.967 859.523 229.034 859.986 230.07L877.863 222.206C877.761 221.975 877.674 221.738 877.604 221.495Z" fill="#4D9F30"/>
<path d="M878.459 223.225L862.667 234.675C863.34 235.591 864.074 236.462 864.865 237.28L878.948 223.804C878.772 223.622 878.609 223.429 878.459 223.225Z" fill="#4D9F30"/>
<path d="M879.856 224.563L868.961 240.706C869.907 241.341 870.896 241.909 871.921 242.409L880.513 224.941C880.285 224.83 880.066 224.704 879.856 224.563Z" fill="#4D9F30"/>
<path d="M881.999 225.424C881.874 225.402 881.749 225.374 881.625 225.344L876.947 244.227C877.496 244.361 878.053 244.481 878.619 244.581C879.184 244.68 879.75 244.759 880.31 244.82L882.372 225.476C882.249 225.463 882.124 225.446 881.999 225.424Z" fill="#4D9F30"/>
<path d="M883.561 225.479L885.661 244.831C886.794 244.712 887.918 244.516 889.024 244.244L884.308 225.348C884.062 225.409 883.813 225.452 883.561 225.479Z" fill="#4D9F30"/>
<path d="M885.421 224.945L894.045 242.425C895.067 241.927 896.055 241.36 897 240.729L886.077 224.568C885.867 224.708 885.648 224.834 885.421 224.945Z" fill="#4D9F30"/>
<path d="M886.985 223.812L901.095 237.316C901.884 236.501 902.618 235.632 903.289 234.717L887.472 223.235C887.323 223.438 887.16 223.631 886.985 223.812Z" fill="#4D9F30"/>
<path d="M888.322 221.505C888.253 221.747 888.167 221.983 888.065 222.213L905.959 230.113C906.418 229.077 906.807 228.01 907.121 226.921L888.322 221.505Z" fill="#4D9F30"/>
<path d="M888.527 220.343L908.044 221.686C908.121 220.555 908.121 219.42 908.043 218.289L888.526 219.592C888.544 219.842 888.544 220.093 888.527 220.343Z" fill="#4D9F30"/>
<path d="M888.32 218.427L907.111 213.044C906.793 211.955 906.401 210.888 905.937 209.852L888.06 217.716C888.163 217.947 888.25 218.184 888.32 218.427Z" fill="#4D9F30"/>
<path d="M887.464 216.697L903.256 205.247C902.584 204.331 901.85 203.46 901.059 202.642L886.977 216.118C887.152 216.3 887.315 216.494 887.464 216.697Z" fill="#4D9F30"/>
<path d="M886.068 215.359L896.963 199.216C896.016 198.582 895.027 198.014 894.003 197.514L885.412 214.981C885.639 215.092 885.858 215.218 886.068 215.359Z" fill="#4D9F30"/>
</g>
<defs>
<filter id="filter0_f" x="0.366699" y="626.367" width="1094.08" height="1094.08" filterUnits="userSpaceOnUse" color-interpolation-filters="sRGB">
<feFlood flood-opacity="0" result="BackgroundImageFix"/>
<feBlend mode="normal" in="SourceGraphic" in2="BackgroundImageFix" result="shape"/>
<feGaussianBlur stdDeviation="150" result="effect1_foregroundBlur"/>
</filter>
<filter id="filter1_f" x="385.764" y="0.0836792" width="1094.08" height="1094.08" filterUnits="userSpaceOnUse" color-interpolation-filters="sRGB">
<feFlood flood-opacity="0" result="BackgroundImageFix"/>
<feBlend mode="normal" in="SourceGraphic" in2="BackgroundImageFix" result="shape"/>
<feGaussianBlur stdDeviation="150" result="effect1_foregroundBlur"/>
</filter>
<clipPath id="clip0">
<rect width="50" height="50" fill="white" transform="translate(862.683 191) rotate(10)"/>
</clipPath>
</defs>
</svg>
