<svg width="697" height="1658" viewBox="0 0 697 1658" fill="none" xmlns="http://www.w3.org/2000/svg">
<g opacity="0.5" filter="url(#filter0_f)">
<circle cx="149.767" cy="1110.41" r="247" transform="rotate(26.0656 149.767 1110.41)" fill="#FFBABA"/>
</g>
<g opacity="0.5" filter="url(#filter1_f)">
<circle cx="-26" cy="547" r="247" fill="#CEFFBD"/>
</g>
<g clip-path="url(#clip0)">
<path d="M201.925 613.498C202.05 613.52 202.175 613.548 202.298 613.578L206.977 594.696C206.427 594.561 205.871 594.441 205.305 594.342C204.74 594.242 204.174 594.163 203.613 594.102L201.552 613.446C201.674 613.46 201.799 613.476 201.925 613.498Z" fill="#FF3333"/>
<path d="M200.363 613.444L198.264 594.091C197.131 594.21 196.007 594.407 194.901 594.679L199.618 613.574C199.863 613.514 200.112 613.47 200.363 613.444Z" fill="#FF3333"/>
<path d="M198.504 613.977L189.881 596.497C188.858 596.996 187.871 597.562 186.925 598.193L197.849 614.354C198.058 614.214 198.277 614.088 198.504 613.977Z" fill="#FF3333"/>
<path d="M196.939 615.11L182.829 601.606C182.039 602.422 181.306 603.29 180.635 604.205L196.452 615.687C196.601 615.484 196.763 615.291 196.939 615.11Z" fill="#FF3333"/>
<path d="M195.86 616.709L177.966 608.809C177.506 609.845 177.118 610.912 176.803 612.001L195.602 617.417C195.671 617.175 195.757 616.939 195.86 616.709Z" fill="#FF3333"/>
<path d="M195.397 618.579L175.88 617.236C175.803 618.367 175.803 619.502 175.881 620.633L195.398 619.33C195.38 619.08 195.38 618.829 195.397 618.579Z" fill="#FF3333"/>
<path d="M195.604 620.495L176.813 625.878C177.131 626.967 177.523 628.034 177.986 629.07L195.863 621.206C195.761 620.975 195.674 620.738 195.604 620.495Z" fill="#FF3333"/>
<path d="M196.459 622.225L180.667 633.675C181.34 634.591 182.074 635.462 182.865 636.28L196.948 622.804C196.772 622.622 196.609 622.429 196.459 622.225Z" fill="#FF3333"/>
<path d="M197.856 623.563L186.961 639.706C187.907 640.34 188.896 640.909 189.921 641.409L198.513 623.941C198.285 623.83 198.066 623.704 197.856 623.563Z" fill="#FF3333"/>
<path d="M199.999 624.424C199.874 624.402 199.749 624.374 199.625 624.344L194.947 643.227C195.496 643.361 196.053 643.481 196.619 643.581C197.184 643.68 197.75 643.759 198.31 643.82L200.372 624.476C200.249 624.463 200.124 624.446 199.999 624.424Z" fill="#FF3333"/>
<path d="M201.561 624.479L203.661 643.831C204.794 643.712 205.918 643.516 207.024 643.244L202.308 624.348C202.062 624.409 201.813 624.452 201.561 624.479Z" fill="#FF3333"/>
<path d="M203.421 623.945L212.045 641.425C213.067 640.927 214.055 640.36 215 639.729L204.077 623.568C203.867 623.708 203.648 623.834 203.421 623.945Z" fill="#FF3333"/>
<path d="M204.985 622.812L219.095 636.316C219.884 635.501 220.618 634.632 221.289 633.717L205.472 622.235C205.323 622.438 205.16 622.631 204.985 622.812Z" fill="#FF3333"/>
<path d="M206.322 620.505C206.253 620.747 206.167 620.984 206.065 621.213L223.959 629.113C224.418 628.077 224.807 627.01 225.121 625.921L206.322 620.505Z" fill="#FF3333"/>
<path d="M206.527 619.343L226.044 620.686C226.121 619.555 226.121 618.42 226.043 617.289L206.526 618.592C206.544 618.842 206.544 619.093 206.527 619.343Z" fill="#FF3333"/>
<path d="M206.32 617.427L225.111 612.044C224.793 610.955 224.401 609.888 223.937 608.852L206.06 616.716C206.163 616.947 206.25 617.184 206.32 617.427Z" fill="#FF3333"/>
<path d="M205.464 615.697L221.256 604.247C220.584 603.331 219.85 602.46 219.059 601.642L204.977 615.118C205.152 615.3 205.315 615.494 205.464 615.697Z" fill="#FF3333"/>
<path d="M204.068 614.359L214.963 598.216C214.016 597.582 213.027 597.014 212.003 596.514L203.412 613.981C203.639 614.092 203.858 614.218 204.068 614.359Z" fill="#FF3333"/>
</g>
<defs>
<filter id="filter0_f" x="-397.288" y="563.354" width="1094.11" height="1094.11" filterUnits="userSpaceOnUse" color-interpolation-filters="sRGB">
<feFlood flood-opacity="0" result="BackgroundImageFix"/>
<feBlend mode="normal" in="SourceGraphic" in2="BackgroundImageFix" result="shape"/>
<feGaussianBlur stdDeviation="150" result="effect1_foregroundBlur"/>
</filter>
<filter id="filter1_f" x="-573" y="0" width="1094" height="1094" filterUnits="userSpaceOnUse" color-interpolation-filters="sRGB">
<feFlood flood-opacity="0" result="BackgroundImageFix"/>
<feBlend mode="normal" in="SourceGraphic" in2="BackgroundImageFix" result="shape"/>
<feGaussianBlur stdDeviation="150" result="effect1_foregroundBlur"/>
</filter>
<clipPath id="clip0">
<rect width="50" height="50" fill="white" transform="translate(180.683 590) rotate(10)"/>
</clipPath>
</defs>
</svg>
