<svg width="80" height="80" viewBox="0 0 80 80" fill="none" xmlns="http://www.w3.org/2000/svg">
<circle cx="40" cy="40" r="38.5" stroke="white" stroke-width="3"/>
<g clip-path="url(#clip0)">
<path d="M57.9998 22.9746C57.802 22.9749 57.6085 22.9164 57.444 22.8066C57.2794 22.6968 57.1511 22.5406 57.0753 22.3578C56.9995 22.1749 56.9796 21.9737 57.0182 21.7796C57.0568 21.5855 57.152 21.4072 57.2919 21.2673L60.2919 18.2654C60.3848 18.1725 60.495 18.0988 60.6163 18.0486C60.7375 17.9983 60.8675 17.9724 60.9988 17.9724C61.1301 17.9724 61.2601 17.9983 61.3814 18.0486C61.5027 18.0988 61.6129 18.1725 61.7057 18.2654C61.7985 18.3583 61.8722 18.4686 61.9224 18.5899C61.9726 18.7113 61.9985 18.8413 61.9985 18.9727C61.9985 19.1041 61.9726 19.2341 61.9224 19.3555C61.8722 19.4769 61.7985 19.5871 61.7057 19.68L58.7057 22.6819C58.6131 22.7748 58.503 22.8484 58.3819 22.8986C58.2607 22.9489 58.1309 22.9747 57.9998 22.9746Z" fill="white"/>
<path d="M30.5002 50.4915C30.3023 50.492 30.1088 50.4337 29.9441 50.3239C29.7793 50.2142 29.6509 50.058 29.575 49.8752C29.4991 49.6923 29.4791 49.491 29.5177 49.2968C29.5562 49.1026 29.6515 48.9242 29.7915 48.7842L48.7918 29.773C48.9793 29.5854 49.2335 29.48 49.4987 29.48C49.7638 29.48 50.0181 29.5854 50.2055 29.773C50.393 29.9606 50.4983 30.215 50.4983 30.4803C50.4983 30.7456 50.393 31 50.2055 31.1876L31.2061 50.1998C31.0187 50.3867 30.7648 50.4917 30.5002 50.4915Z" fill="white"/>
<path d="M18.9998 61.999C18.802 61.9993 18.6085 61.9408 18.444 61.831C18.2794 61.7212 18.1511 61.565 18.0753 61.3822C17.9995 61.1994 17.9796 60.9982 18.0182 60.804C18.0568 60.6099 18.152 60.4316 18.2919 60.2917L21.2919 57.2898C21.3848 57.1969 21.495 57.1232 21.6163 57.073C21.7375 57.0227 21.8675 56.9968 21.9988 56.9968C22.1301 56.9968 22.2601 57.0227 22.3814 57.073C22.5027 57.1232 22.6129 57.1969 22.7057 57.2898C22.7985 57.3827 22.8722 57.493 22.9224 57.6143C22.9726 57.7357 22.9985 57.8658 22.9985 57.9971C22.9985 58.1285 22.9726 58.2586 22.9224 58.3799C22.8722 58.5013 22.7985 58.6116 22.7057 58.7044L19.7057 61.7063C19.6131 61.7992 19.503 61.8728 19.3819 61.9231C19.2607 61.9733 19.1309 61.9991 18.9998 61.999Z" fill="white"/>
<path d="M35.1721 62.999C34.7782 63.0007 34.3878 62.9243 34.0237 62.774C33.6595 62.6238 33.3287 62.4028 33.0505 62.1238L17.8799 46.939C17.6011 46.6602 17.3799 46.3292 17.229 45.9648C17.0782 45.6005 17.0005 45.21 17.0005 44.8156C17.0005 44.4212 17.0782 44.0307 17.229 43.6664C17.3799 43.302 17.6011 42.971 17.8799 42.6922L19.0518 41.5196C19.6143 40.9568 20.3773 40.6406 21.1728 40.6406C21.9684 40.6406 22.7314 40.9568 23.2939 41.5196L38.4646 56.7016C39.0252 57.2655 39.3399 58.0286 39.3399 58.824C39.3399 59.6195 39.0252 60.3825 38.4646 60.9465L37.2918 62.1238C37.0144 62.4037 36.6841 62.6256 36.3202 62.7767C35.9563 62.9278 35.566 63.0049 35.1721 63.0037V62.999ZM21.1724 42.6425C20.9071 42.6427 20.6526 42.7479 20.4646 42.9352L19.2918 44.1125C19.105 44.3001 19.0002 44.5541 19.0002 44.8189C19.0002 45.0837 19.105 45.3377 19.2918 45.5253L34.4689 60.7035C34.6589 60.8863 34.9123 60.9883 35.1758 60.9883C35.4394 60.9883 35.6927 60.8863 35.8827 60.7035L37.0546 59.5309C37.2419 59.3432 37.3471 59.0888 37.3471 58.8236C37.3471 58.5583 37.2419 58.3039 37.0546 58.1163L21.8802 42.9352C21.692 42.7484 21.4375 42.6438 21.1724 42.6444V42.6425Z" fill="white"/>
<path d="M28.1716 64C27.7775 64.0011 27.387 63.9239 27.0229 63.7731C26.6587 63.6222 26.3281 63.4006 26.0501 63.121L16.8804 53.9437C16.6016 53.6649 16.3804 53.3339 16.2295 52.9696C16.0786 52.6052 16.001 52.2147 16.001 51.8203C16.001 51.426 16.0786 51.0354 16.2295 50.6711C16.3804 50.3068 16.6016 49.9757 16.8804 49.697L19.4688 47.1144C19.6606 46.9575 19.9039 46.8775 20.1513 46.8899C20.3987 46.9023 20.6328 47.0063 20.808 47.1816C20.9831 47.3569 21.087 47.591 21.0994 47.8386C21.1118 48.0862 21.0319 48.3296 20.8751 48.5216L18.2922 51.1116C18.1047 51.2999 17.9995 51.555 17.9997 51.8208C17.9993 51.9521 18.025 52.0821 18.0752 52.2033C18.1254 52.3246 18.1992 52.4347 18.2922 52.5272L27.4638 61.7045C27.6544 61.8864 27.9077 61.988 28.1711 61.988C28.4346 61.988 28.6879 61.8864 28.8785 61.7045L31.4688 59.1219C31.6606 58.965 31.9039 58.885 32.1513 58.8974C32.3987 58.9098 32.6328 59.0138 32.808 59.1891C32.9831 59.3644 33.087 59.5985 33.0994 59.8461C33.1118 60.0937 33.0319 60.3371 32.8751 60.5291L30.2894 63.1163C30.0125 63.3966 29.6827 63.619 29.3191 63.7707C28.9556 63.9224 28.5655 64.0003 28.1716 64Z" fill="white"/>
<path d="M58.8279 39.3285C58.0326 39.3293 57.2695 39.0142 56.7064 38.4523L41.5338 23.2684C40.9727 22.7047 40.6577 21.9416 40.6577 21.146C40.6577 20.3504 40.9727 19.5872 41.5338 19.0236L42.7057 17.851C43.8438 16.7206 45.8182 16.7206 46.9498 17.851L62.1251 33.033C62.4039 33.3117 62.625 33.6427 62.7759 34.0071C62.9268 34.3714 63.0045 34.7619 63.0045 35.1563C63.0045 35.5507 62.9268 35.9412 62.7759 36.3055C62.625 36.6699 62.4039 37.0009 62.1251 37.2797L60.9532 38.4523C60.6742 38.7313 60.3427 38.9523 59.978 39.1027C59.6133 39.2531 59.2224 39.3298 58.8279 39.3285ZM44.8282 18.972C44.5646 18.9729 44.312 19.0777 44.1251 19.2637L42.9532 20.4373C42.7659 20.6249 42.6607 20.8793 42.6607 21.1446C42.6607 21.4098 42.7659 21.6642 42.9532 21.8519L58.1182 37.033C58.3063 37.2195 58.5603 37.3241 58.8251 37.3241C59.0899 37.3241 59.3439 37.2195 59.532 37.033L60.7038 35.8604C60.8912 35.6727 60.9964 35.4183 60.9964 35.153C60.9964 34.8878 60.8912 34.6334 60.7038 34.4457L45.5313 19.2637C45.4393 19.1709 45.3298 19.0973 45.2091 19.0472C45.0884 18.9971 44.9589 18.9715 44.8282 18.972Z" fill="white"/>
<path d="M59.8282 33.1529C59.6313 33.1517 59.4393 33.0924 59.276 32.9824C59.1128 32.8723 58.9856 32.7165 58.9105 32.5345C58.8354 32.3524 58.8157 32.1522 58.8539 31.959C58.892 31.7658 58.9864 31.5882 59.125 31.4484L61.7107 28.8612C61.8037 28.7683 61.8775 28.658 61.9278 28.5365C61.9781 28.4151 62.0041 28.2849 62.0041 28.1534C62.0041 28.0219 61.9781 27.8917 61.9278 27.7703C61.8775 27.6488 61.8037 27.5385 61.7107 27.4456L52.5363 18.2655C52.3449 18.085 52.0919 17.9845 51.8289 17.9845C51.566 17.9845 51.313 18.085 51.1216 18.2655L48.536 20.8527C48.4455 20.9545 48.3352 21.0367 48.2118 21.0942C48.0884 21.1518 47.9546 21.1836 47.8185 21.1875C47.6824 21.1915 47.547 21.1676 47.4204 21.1173C47.2939 21.067 47.179 20.9914 47.0827 20.8951C46.9865 20.7987 46.9109 20.6837 46.8606 20.5571C46.8104 20.4306 46.7865 20.295 46.7905 20.1589C46.7944 20.0227 46.8261 19.8888 46.8837 19.7653C46.9412 19.6419 47.0233 19.5315 47.125 19.4409L49.7079 16.8509C50.8422 15.7158 52.8204 15.7176 53.9519 16.8509L63.1216 26.0282C63.6841 26.5911 64.0001 27.3545 64.0001 28.1506C64.0001 28.9466 63.6841 29.7101 63.1216 30.273L60.536 32.8602C60.348 33.0475 60.0935 33.1528 59.8282 33.1529Z" fill="white"/>
</g>
<defs>
<clipPath id="clip0">
<rect width="48" height="48" fill="white" transform="translate(16 16)"/>
</clipPath>
</defs>
</svg>
