<svg width="80" height="80" viewBox="0 0 80 80" fill="none" xmlns="http://www.w3.org/2000/svg">
<circle cx="40" cy="40" r="38.5" stroke="white" stroke-width="3"/>
<g clip-path="url(#clip0)">
<path d="M59.5673 45.5172C60.661 44.7541 61.4821 43.6634 61.9113 42.4036C62.3404 41.1438 62.3553 39.7805 61.9536 38.5117C61.552 37.2429 60.7549 36.1348 59.678 35.3481C58.6011 34.5615 57.3005 34.1374 55.9652 34.1374C54.6298 34.1374 53.3293 34.5615 52.2524 35.3481C51.1755 36.1348 50.3783 37.2429 49.9767 38.5117C49.5751 39.7805 49.5899 41.1438 50.0191 42.4036C50.4482 43.6634 51.2693 44.7541 52.3631 45.5172C50.9936 45.9868 49.732 46.724 48.6522 47.6856C47.1655 46.4219 45.431 45.4803 43.5592 44.9209C45.0465 44.0257 46.1987 42.67 46.8397 41.0609C47.4806 39.4518 47.5752 37.6778 47.1088 36.0102C46.6424 34.3425 45.6408 32.8728 44.2569 31.8258C42.8731 30.7788 41.1833 30.2119 39.4456 30.2119C37.7079 30.2119 36.0181 30.7788 34.6342 31.8258C33.2504 32.8728 32.2488 34.3425 31.7824 36.0102C31.316 37.6778 31.4105 39.4518 32.0515 41.0609C32.6925 42.67 33.8447 44.0257 35.332 44.9209C33.4834 45.4805 31.7688 46.4102 30.2934 47.6531C29.2214 46.7137 27.9757 45.9919 26.626 45.5281C27.7198 44.7649 28.5409 43.6742 28.97 42.4144C29.3992 41.1546 29.414 39.7913 29.0124 38.5225C28.6108 37.2538 27.8137 36.1456 26.7368 35.359C25.6599 34.5723 24.3593 34.1482 23.0239 34.1482C21.6886 34.1482 20.388 34.5723 19.3111 35.359C18.2342 36.1456 17.4371 37.2538 17.0355 38.5225C16.6339 39.7913 16.6487 41.1546 17.0778 42.4144C17.507 43.6742 18.3281 44.7649 19.4218 45.5281C17.2554 46.2739 15.3763 47.6742 14.046 49.5339C12.7158 51.3936 12.0006 53.6202 12 55.9038L12 56.6193C12.0008 56.6306 12.0056 56.6412 12.0136 56.6492C12.0216 56.6571 12.0322 56.662 12.0435 56.6627H25.3528C25.2743 57.2704 25.2343 57.8823 25.2331 58.495V59.2322C25.2328 59.9898 25.3824 60.7399 25.6732 61.4399C25.964 62.1398 26.3905 62.7757 26.9281 63.3114C27.4658 63.8471 28.1041 64.2719 28.8067 64.5617C29.5092 64.8514 30.2622 65.0004 31.0226 65.0001H47.8904C48.6507 65.0004 49.4037 64.8514 50.1063 64.5617C50.8088 64.2719 51.4471 63.8471 51.9848 63.3114C52.5225 62.7757 52.9489 62.1398 53.2397 61.4399C53.5306 60.7399 53.6801 59.9898 53.6799 59.2322V58.495C53.6786 57.8823 53.6386 57.2704 53.5602 56.6627H66.9565C66.9678 56.662 66.9784 56.6571 66.9864 56.6492C66.9944 56.6412 66.9992 56.6306 67 56.6193V55.9038C66.9946 53.6185 66.2765 51.3914 64.9449 49.5306C63.6132 47.6698 61.734 46.2673 59.5673 45.5172ZM51.4272 40.389C51.4273 39.4986 51.6914 38.628 52.1863 37.8865C52.6812 37.145 53.3849 36.5656 54.209 36.221C55.0332 35.8764 55.9411 35.782 56.819 35.9495C57.6968 36.117 58.5054 36.5391 59.1434 37.1627C59.7814 37.7864 60.2203 38.5838 60.4051 39.455C60.5899 40.3262 60.5124 41.2324 60.1822 42.0599C59.8521 42.8874 59.284 43.5993 58.5492 44.1063C57.8145 44.6134 56.9459 44.893 56.0522 44.9101H55.8781C54.6892 44.889 53.5562 44.4032 52.7235 43.5574C51.8909 42.7117 51.4253 41.5737 51.4272 40.389ZM33.2099 38.1339C33.2098 36.9247 33.5652 35.742 34.2321 34.7317C34.899 33.7214 35.8483 32.9278 36.9628 32.4489C38.0773 31.97 39.3081 31.8267 40.5034 32.0368C41.6986 32.2469 42.806 32.8011 43.6887 33.631C44.5714 34.4609 45.1908 35.5302 45.4705 36.7069C45.7502 37.8835 45.6778 39.116 45.2625 40.2522C44.8471 41.3883 44.1068 42.3784 43.133 43.1002C42.1593 43.822 40.9946 44.2439 39.7829 44.3138H39.0647C37.4823 44.2204 35.9953 43.529 34.9073 42.3805C33.8192 41.232 33.2122 39.7131 33.2099 38.1339ZM18.4533 40.389C18.4535 39.4986 18.7176 38.628 19.2125 37.8865C19.7074 37.145 20.411 36.5656 21.2352 36.221C22.0593 35.8764 22.9673 35.782 23.8451 35.9495C24.7229 36.117 25.5315 36.5391 26.1695 37.1627C26.8075 37.7864 27.2464 38.5838 27.4312 39.455C27.616 40.3262 27.5385 41.2324 27.2083 42.0599C26.8782 42.8874 26.3101 43.5993 25.5754 44.1063C24.8406 44.6134 23.972 44.893 23.0784 44.9101H22.9042C21.7159 44.8871 20.5841 44.4007 19.7518 43.5553C18.9196 42.71 18.4534 41.5731 18.4533 40.389ZM25.6575 54.9172H13.763C14.0068 52.6589 15.0748 50.5686 16.7641 49.0435C18.4535 47.5184 20.6463 46.6647 22.926 46.6448H23.0566C25.2326 46.6566 27.334 47.4364 28.9875 48.8457C27.3932 50.5659 26.2495 52.6513 25.6575 54.9172ZM51.9169 59.2322C51.9152 60.3014 51.4881 61.3262 50.7293 62.0822C49.9705 62.8382 48.9418 63.2637 47.8686 63.2654H31.0008C29.9277 63.2637 28.899 62.8382 28.1401 62.0822C27.3813 61.3262 26.9542 60.3014 26.9525 59.2322V58.495C26.9557 55.2611 28.2215 52.1553 30.4819 49.8345C32.7424 47.5137 35.8203 46.1598 39.0647 46.0593C39.1844 46.0702 39.315 46.0702 39.4347 46.0702C39.5544 46.0702 39.685 46.0702 39.8047 46.0593C43.0491 46.1598 46.127 47.5137 48.3875 49.8345C50.648 52.1553 51.9137 55.2611 51.9169 58.495V59.2322ZM53.2119 54.9172C52.6241 52.6694 51.4919 50.5996 49.9145 48.8891C51.5784 47.4558 53.7004 46.6601 55.8999 46.6448H56.0305C58.3101 46.6647 60.503 47.5184 62.1923 49.0435C63.8817 50.5686 64.9497 52.6589 65.1935 54.9172H53.2119Z" fill="white"/>
<path d="M18.5383 29.7411H22.5322L24.6064 33.0533C24.6593 33.1406 24.7339 33.2128 24.823 33.263C24.9122 33.3131 25.0128 33.3395 25.1151 33.3395C25.2175 33.3395 25.3181 33.3131 25.4073 33.263C25.4964 33.2128 25.571 33.1406 25.6239 33.0533L27.697 29.7433H31.6909C32.2482 29.7479 32.7846 29.5324 33.1827 29.1439C33.5808 28.7553 33.8082 28.2255 33.8151 27.6703V20.081C33.8085 19.5256 33.5812 18.9955 33.1831 18.6067C32.7849 18.218 32.2483 18.0023 31.6909 18.0069H18.5383C17.9803 18.0023 17.4432 18.2184 17.045 18.6079C16.6467 18.9973 16.4198 19.5283 16.4141 20.0842V27.6736C16.4224 28.2278 16.6504 28.7563 17.0484 29.1436C17.4464 29.531 17.982 29.7457 18.5383 29.7411ZM17.6144 20.0842C17.6207 19.8458 17.7213 19.6196 17.8944 19.4548C18.0675 19.2901 18.299 19.2003 18.5383 19.2049H31.6909C31.9302 19.2003 32.1617 19.2901 32.3348 19.4548C32.5078 19.6196 32.6085 19.8458 32.6148 20.0842V27.6736C32.6082 27.9117 32.5074 28.1375 32.3343 28.3019C32.1612 28.4662 31.9299 28.5556 31.6909 28.5507H27.364C27.2616 28.5528 27.1615 28.5806 27.0727 28.6314C26.9839 28.6821 26.9093 28.7543 26.8558 28.8412L25.1146 31.6189L23.3734 28.8391C23.3198 28.7521 23.245 28.6801 23.156 28.6296C23.0669 28.5792 22.9665 28.552 22.8641 28.5507H18.5383C18.2993 28.5556 18.068 28.4662 17.8949 28.3019C17.7218 28.1375 17.621 27.9117 17.6144 27.6736V20.0842Z" fill="white"/>
<path d="M37.2256 26.8734H40.9256L42.8475 29.9438C42.8964 30.0248 42.9656 30.0919 43.0483 30.1384C43.1309 30.185 43.2243 30.2094 43.3192 30.2094C43.4142 30.2094 43.5075 30.185 43.5902 30.1384C43.6728 30.0919 43.742 30.0248 43.791 29.9438L45.7128 26.8755H49.4129C49.9293 26.8799 50.4265 26.6801 50.7955 26.3201C51.1645 25.96 51.3752 25.4689 51.3815 24.9544V17.9223C51.3738 17.4081 51.1626 16.9177 50.794 16.5578C50.4254 16.1978 49.929 15.9974 49.4129 16H37.2245C36.7083 15.9974 36.212 16.1978 35.8434 16.5578C35.4747 16.9177 35.2636 17.4081 35.2559 17.9223V24.9522C35.2622 25.4669 35.473 25.9582 35.8423 26.3183C36.2115 26.6784 36.7089 26.878 37.2256 26.8734ZM36.3691 17.9223C36.3751 17.7014 36.4685 17.4919 36.629 17.3394C36.7894 17.1868 37.0039 17.1037 37.2256 17.1081H49.4139C49.6357 17.1037 49.8501 17.1868 50.0106 17.3394C50.171 17.4919 50.2644 17.7014 50.2704 17.9223V24.9522C50.2644 25.173 50.171 25.3824 50.0105 25.5347C49.85 25.6871 49.6356 25.77 49.4139 25.7653H45.4092C45.3143 25.767 45.2213 25.7925 45.1389 25.8395C45.0566 25.8865 44.9875 25.9535 44.938 26.0342L43.3209 28.6146L41.7092 26.032C41.6593 25.9519 41.59 25.8854 41.5077 25.8388C41.4254 25.7922 41.3326 25.767 41.2379 25.7653H37.2256C37.004 25.77 36.7895 25.6871 36.629 25.5347C36.4686 25.3824 36.3751 25.173 36.3691 24.9522V17.9223Z" fill="white"/>
<path d="M54.0802 30.5508H57.1088L58.6857 33.0596C58.7258 33.1259 58.7824 33.1806 58.8499 33.2186C58.9175 33.2567 58.9938 33.2767 59.0715 33.2767C59.1491 33.2767 59.2254 33.2567 59.293 33.2186C59.3606 33.1806 59.4172 33.1259 59.4572 33.0596L61.0298 30.5497H64.0573C64.4797 30.5532 64.8862 30.3899 65.1881 30.0955C65.4899 29.8011 65.6624 29.3995 65.6679 28.9787V23.2325C65.6627 22.8115 65.4903 22.4097 65.1885 22.1151C64.8866 21.8205 64.4798 21.657 64.0573 21.6605H54.0802C53.6578 21.6573 53.2514 21.8209 52.9497 22.1155C52.6481 22.4101 52.4759 22.8117 52.4707 23.2325V28.9787C52.4756 29.3996 52.6477 29.8014 52.9494 30.0961C53.2511 30.3908 53.6577 30.5543 54.0802 30.5508ZM53.3805 23.2293C53.3853 23.0488 53.4616 22.8775 53.5927 22.7528C53.7238 22.6281 53.899 22.5601 54.0802 22.5636H64.0529C64.2343 22.5598 64.4098 22.6277 64.5411 22.7524C64.6725 22.8771 64.7489 23.0486 64.7537 23.2293V28.9755C64.7486 29.156 64.6721 29.3272 64.5408 29.4517C64.4095 29.5762 64.2341 29.6439 64.0529 29.6401H60.7729C60.6957 29.6414 60.62 29.6619 60.5527 29.6998C60.4854 29.7376 60.4287 29.7917 60.3877 29.8569L59.0666 31.9754L57.7465 29.8678C57.7059 29.8022 57.6493 29.7479 57.5819 29.71C57.5146 29.672 57.4386 29.6517 57.3613 29.6509H54.0802C53.8992 29.6544 53.7241 29.5866 53.5931 29.4621C53.462 29.3376 53.3856 29.1666 53.3805 28.9863V23.2293Z" fill="white"/>
</g>
<defs>
<clipPath id="clip0">
<rect width="55" height="49" fill="white" transform="translate(12 16)"/>
</clipPath>
</defs>
</svg>
