<svg width="80" height="80" viewBox="0 0 80 80" fill="none" xmlns="http://www.w3.org/2000/svg">
<circle cx="40" cy="40" r="38.5" stroke="white" stroke-width="3"/>
<g clip-path="url(#clip0)">
<path d="M61.8916 37.7213C63.0848 36.8877 63.9805 35.6965 64.4487 34.3205C64.9168 32.9445 64.933 31.4555 64.4949 30.0697C64.0568 28.684 63.1872 27.4736 62.0124 26.6144C60.8376 25.7552 59.4188 25.292 57.962 25.292C56.5053 25.292 55.0865 25.7552 53.9117 26.6144C52.7369 27.4736 51.8672 28.684 51.4291 30.0697C50.991 31.4555 51.0072 32.9445 51.4754 34.3205C51.9435 35.6965 52.8392 36.8877 54.0324 37.7213C52.5385 38.2342 51.1622 39.0393 49.9842 40.0896C48.3618 38.7115 46.4697 37.6851 44.4282 37.0759C46.0507 36.0982 47.3076 34.6174 48.0069 32.8599C48.7062 31.1024 48.8093 29.1649 48.3005 27.3434C47.7917 25.522 46.699 23.9168 45.1894 22.7732C43.6798 21.6296 41.8363 21.0105 39.9406 21.0105C38.045 21.0105 36.2015 21.6296 34.6919 22.7732C33.1823 23.9168 32.0896 25.522 31.5808 27.3434C31.072 29.1649 31.1751 31.1024 31.8744 32.8599C32.5736 34.6174 33.8306 36.0982 35.4531 37.0759C33.4364 37.6871 31.566 38.7025 29.9565 40.06C28.787 39.034 27.428 38.2456 25.9557 37.739C27.1489 36.9055 28.0446 35.7142 28.5128 34.3382C28.9809 32.9623 28.9971 31.4733 28.559 30.0875C28.1209 28.7017 27.2513 27.4914 26.0765 26.6322C24.9017 25.773 23.4829 25.3098 22.0261 25.3098C20.5694 25.3098 19.1506 25.773 17.9758 26.6322C16.801 27.4914 15.9314 28.7017 15.4932 30.0875C15.0551 31.4733 15.0713 32.9623 15.5395 34.3382C16.0076 35.7142 16.9033 36.9055 18.0966 37.739C15.7341 38.5534 13.6848 40.0818 12.2337 42.1118C10.7826 44.1418 10.0019 46.5724 10 49.0656L10 49.8472C10.0008 49.8595 10.0061 49.871 10.0148 49.8797C10.0236 49.8885 10.0352 49.8937 10.0475 49.8945H24.5667C24.481 50.5582 24.4374 51.2266 24.4361 51.8958V52.7069C24.4358 53.5343 24.5989 54.3537 24.9162 55.1181C25.2335 55.8826 25.6987 56.5772 26.2852 57.1623C26.8718 57.7473 27.5682 58.2113 28.3346 58.5278C29.101 58.8443 29.9224 59.007 30.7519 59.0067H49.1531C49.9826 59.007 50.8041 58.8443 51.5705 58.5278C52.3369 58.2113 53.0332 57.7473 53.6198 57.1623C54.2063 56.5772 54.6715 55.8826 54.9888 55.1181C55.3061 54.3537 55.4692 53.5343 55.4689 52.7069V51.9017C55.4676 51.2326 55.424 50.5641 55.3383 49.9005H69.9525C69.9648 49.8996 69.9764 49.8944 69.9852 49.8857C69.9939 49.877 69.9992 49.8654 70 49.8531V49.0715C69.9954 46.5745 69.2125 44.1407 67.7597 42.1071C66.307 40.0735 64.2563 38.5408 61.8916 37.7213ZM53.0115 32.1202C53.0117 31.1476 53.2998 30.1967 53.8396 29.3869C54.3795 28.577 55.1472 27.9442 56.0462 27.5678C56.9453 27.1914 57.9358 27.0883 58.8934 27.2713C59.851 27.4542 60.7332 27.9152 61.4291 28.5964C62.1251 29.2775 62.604 30.1485 62.8056 31.1C63.0072 32.0516 62.9226 33.0413 62.5624 33.9451C62.2022 34.8489 61.5825 35.6265 60.781 36.1803C59.9795 36.7341 59.0318 37.0395 58.057 37.0581H57.867C56.57 37.0352 55.334 36.5045 54.4257 35.5808C53.5173 34.657 53.0094 33.4141 53.0115 32.1202ZM33.1381 29.6571C33.138 28.3364 33.5257 27.0446 34.2532 25.9411C34.9808 24.8377 36.0163 23.9709 37.2321 23.4478C38.4479 22.9248 39.7907 22.7683 41.0946 22.9978C42.3985 23.2272 43.6065 23.8325 44.5695 24.739C45.5324 25.6454 46.2082 26.8133 46.5133 28.0985C46.8184 29.3836 46.7395 30.7298 46.2863 31.9707C45.8332 33.2116 45.0256 34.293 43.9633 35.0814C42.901 35.8697 41.6305 36.3305 40.3087 36.4068H39.5251C37.7989 36.3049 36.1767 35.5496 34.9898 34.2953C33.8028 33.0409 33.1405 31.382 33.1381 29.6571ZM17.04 32.1202C17.0401 31.1476 17.3283 30.1967 17.8681 29.3869C18.408 28.577 19.1757 27.9442 20.0747 27.5678C20.9738 27.1914 21.9643 27.0883 22.9219 27.2713C23.8795 27.4542 24.7617 27.9152 25.4576 28.5964C26.1536 29.2775 26.6324 30.1485 26.8341 31.1C27.0357 32.0516 26.9511 33.0413 26.5909 33.9451C26.2307 34.8489 25.611 35.6265 24.8095 36.1803C24.008 36.7341 23.0603 37.0395 22.0855 37.0581H21.8955C20.5992 37.033 19.3644 36.5017 18.4565 35.5784C17.5486 34.6551 17.04 33.4134 17.04 32.1202ZM24.8991 47.988H11.9232C12.1892 45.5215 13.3543 43.2385 15.1972 41.5727C17.0401 39.907 19.4324 38.9746 21.9193 38.9528H22.0617C24.4356 38.9657 26.728 39.8175 28.5319 41.3567C26.7926 43.2355 25.5449 45.5132 24.8991 47.988ZM53.5457 52.7069C53.5438 53.8747 53.0779 54.994 52.2501 55.8198C51.4223 56.6455 50.3001 57.1102 49.1294 57.1121H30.7281C29.5574 57.1102 28.4352 56.6455 27.6074 55.8198C26.7796 54.994 26.3137 53.8747 26.3118 52.7069V51.9017C26.3154 48.3696 27.6961 44.9774 30.1621 42.4426C32.628 39.9077 35.9858 38.4291 39.5251 38.3193C39.6557 38.3311 39.7982 38.3311 39.9288 38.3311C40.0594 38.3311 40.2018 38.3311 40.3324 38.3193C43.8717 38.4291 47.2295 39.9077 49.6955 42.4426C52.1614 44.9774 53.5422 48.3696 53.5457 51.9017V52.7069ZM54.9585 47.9939C54.3172 45.5389 53.0821 43.2782 51.3613 41.41C53.1764 39.8445 55.4913 38.9755 57.8908 38.9587H58.0332C60.5202 38.9805 62.9124 39.9129 64.7553 41.5786C66.5982 43.2444 67.7633 45.5275 68.0293 47.9939H54.9585Z" fill="white"/>
</g>
<defs>
<clipPath id="clip0">
<rect width="60" height="38" fill="white" transform="translate(10 21)"/>
</clipPath>
</defs>
</svg>
