<svg width="31" height="31" viewBox="0 0 31 31" fill="none" xmlns="http://www.w3.org/2000/svg">
<g clip-path="url(#clip0)">
<path d="M15.6374 12.2787C15.7028 12.2903 15.7678 12.3047 15.8325 12.3205L18.2773 2.45364C17.99 2.38319 17.6993 2.32085 17.4038 2.26874C17.1082 2.21662 16.8127 2.17559 16.5196 2.14371L15.4423 12.2517C15.5063 12.2586 15.5716 12.2671 15.6374 12.2787Z" fill="#4D9F30"/>
<path d="M14.821 12.2504L13.7242 2.13797C13.132 2.20018 12.5448 2.30274 11.9668 2.4449L14.4313 12.3186C14.5595 12.2871 14.6897 12.2643 14.821 12.2504Z" fill="#4D9F30"/>
<path d="M13.8495 12.5289L9.34333 3.39485C8.80899 3.65541 8.29301 3.95157 7.7989 4.28133L13.507 12.7259C13.6166 12.6527 13.731 12.5868 13.8495 12.5289Z" fill="#4D9F30"/>
<path d="M13.0313 13.121L5.65864 6.06456C5.24591 6.49082 4.86282 6.94452 4.512 7.42254L12.777 13.4225C12.8548 13.3163 12.9398 13.2156 13.0313 13.121Z" fill="#4D9F30"/>
<path d="M12.4676 13.9565L3.11722 9.82846C2.87699 10.3701 2.67408 10.9275 2.50989 11.4966L12.3329 14.3264C12.3692 14.2002 12.4143 14.0766 12.4676 13.9565Z" fill="#4D9F30"/>
<path d="M12.2256 14.9336L2.02735 14.2318C1.98698 14.8228 1.98702 15.4159 2.02751 16.0071L12.2259 15.326C12.2168 15.1953 12.2167 15.0642 12.2256 14.9336Z" fill="#4D9F30"/>
<path d="M12.3343 15.9351L2.51543 18.7477C2.68159 19.3169 2.88641 19.8742 3.12846 20.416L12.47 16.3067C12.4164 16.186 12.3711 16.0619 12.3343 15.9351Z" fill="#4D9F30"/>
<path d="M12.7813 16.8389L4.52929 22.8219C4.88082 23.3008 5.2644 23.7556 5.6774 24.1832L13.0365 17.1413C12.9448 17.0463 12.8595 16.9453 12.7813 16.8389Z" fill="#4D9F30"/>
<path d="M13.5108 17.5383L7.81794 25.9736C8.31237 26.305 8.8291 26.6022 9.36444 26.8631L13.854 17.7357C13.7353 17.6777 13.6206 17.6118 13.5108 17.5383Z" fill="#4D9F30"/>
<path d="M14.6304 17.988C14.5649 17.9765 14.5 17.962 14.4352 17.9463L11.9904 27.8131C12.2774 27.8835 12.5684 27.9459 12.864 27.998C13.1596 28.0501 13.4551 28.0912 13.7481 28.123L14.8254 18.015C14.7612 18.0081 14.6958 17.9996 14.6304 17.988Z" fill="#4D9F30"/>
<path d="M15.4468 18.0166L16.5439 28.1291C17.1361 28.0669 17.7234 27.9644 18.3013 27.8222L15.8368 17.9484C15.7085 17.98 15.5782 18.0027 15.4468 18.0166Z" fill="#4D9F30"/>
<path d="M16.4189 17.7379L20.9251 26.8719C21.4594 26.6114 21.9754 26.3152 22.4695 25.9855L16.7614 17.5409C16.6517 17.614 16.5373 17.6798 16.4189 17.7379Z" fill="#4D9F30"/>
<path d="M17.2367 17.1459L24.6094 24.2023C25.0221 23.7761 25.4052 23.3224 25.756 22.8444L17.491 16.8445C17.4131 16.9505 17.3282 17.0512 17.2367 17.1459Z" fill="#4D9F30"/>
<path d="M17.9351 15.9404C17.8987 16.0666 17.8537 16.1902 17.8004 16.3102L27.1508 20.4383C27.391 19.8967 27.5939 19.3393 27.7581 18.7701L17.9351 15.9404Z" fill="#4D9F30"/>
<path d="M18.0422 15.3331L28.2404 16.0349C28.2808 15.4439 28.2807 14.8508 28.2402 14.2596L18.0418 14.9407C18.0509 15.0714 18.051 15.2025 18.0422 15.3331Z" fill="#4D9F30"/>
<path d="M17.9339 14.3316L27.7528 11.519C27.5867 10.9499 27.3819 10.3925 27.1398 9.85078L17.7983 13.96C17.8519 14.0807 17.8972 14.2049 17.9339 14.3316Z" fill="#4D9F30"/>
<path d="M17.4866 13.4276L25.7386 7.44462C25.3871 6.96576 25.0035 6.51098 24.5905 6.08338L17.2321 13.1253C17.3235 13.2204 17.4085 13.3214 17.4866 13.4276Z" fill="#4D9F30"/>
<path d="M16.7569 12.7287L22.4498 4.29337C21.9553 3.96219 21.4386 3.66499 20.9034 3.40386L16.4141 12.5314C16.5327 12.5893 16.6473 12.6553 16.7569 12.7287Z" fill="#4D9F30"/>
</g>
<defs>
<clipPath id="clip0">
<rect width="26.1271" height="26.1271" fill="white" transform="translate(4.53711) rotate(10)"/>
</clipPath>
</defs>
</svg>
