<svg width="50" height="50" viewBox="0 0 50 50" fill="none" xmlns="http://www.w3.org/2000/svg">
<g clip-path="url(#clip0)">
<path d="M25.0002 19.4523C25.1274 19.4523 25.2546 19.458 25.3818 19.4662L26.7105 0.0581824C26.1457 0.0208666 25.5771 0 25.0028 0C24.4284 0 23.8578 0.0208666 23.2949 0.0581824L24.6237 19.4662C24.7464 19.458 24.8724 19.4523 25.0002 19.4523Z" fill="white"/>
<path d="M23.4526 19.67L18.0251 0.976074C16.9296 1.29015 15.857 1.67856 14.8149 2.13856L22.7409 19.9281C22.972 19.8261 23.2098 19.7398 23.4526 19.67Z" fill="white"/>
<path d="M21.7144 20.5179L10.1864 4.80103C9.26596 5.46965 8.39195 6.19928 7.57031 6.98495L21.1343 21.003C21.3165 20.8287 21.5103 20.6666 21.7144 20.5179Z" fill="white"/>
<path d="M20.369 21.9057L4.12917 11.0569C3.49297 11.9974 2.92173 12.9798 2.41943 13.9972L19.99 22.5584C20.1012 22.3325 20.2279 22.1144 20.369 21.9057Z" fill="white"/>
<path d="M19.5842 23.6676L0.590249 18.9949C0.317501 20.0955 0.120306 21.2134 0 22.3406L19.4532 24.4095C19.4798 24.1595 19.5236 23.9116 19.5842 23.6676Z" fill="white"/>
<path d="M19.4532 25.5896L0 27.6559C0.120306 28.7831 0.317501 29.901 0.590249 31.0016L19.5842 26.329C19.5237 26.0858 19.48 25.8387 19.4532 25.5896Z" fill="white"/>
<path d="M19.99 27.4409L2.41943 36.0046C2.92173 37.022 3.49297 38.0044 4.12917 38.9449L20.369 28.0961C20.228 27.8865 20.1013 27.6676 19.99 27.4409Z" fill="white"/>
<path d="M21.1328 28.9961L7.56885 43.0142C8.39048 43.7999 9.26453 44.5295 10.185 45.1981L21.7142 29.4812C21.5097 29.3326 21.3155 29.1705 21.1328 28.9961Z" fill="white"/>
<path d="M22.7404 30.0713L14.8145 47.8608C15.8564 48.3211 16.929 48.7095 18.0247 49.0233L23.4528 30.3293C23.2097 30.2595 22.9717 30.1733 22.7404 30.0713Z" fill="white"/>
<path d="M25.0004 30.5471C24.8732 30.5471 24.746 30.5414 24.6188 30.5332L23.29 49.9412C23.8542 49.9785 24.4235 49.9994 24.9979 49.9994C25.5722 49.9994 26.1428 49.9785 26.7057 49.9412L25.3769 30.5332C25.2536 30.5414 25.1276 30.5471 25.0004 30.5471Z" fill="white"/>
<path d="M26.5483 30.3293L31.9765 49.0233C33.072 48.7093 34.1446 48.3209 35.1867 47.8608L27.2607 30.0713C27.0295 30.1733 26.7914 30.2595 26.5483 30.3293Z" fill="white"/>
<path d="M28.2876 29.4812L39.8156 45.1981C40.736 44.5295 41.61 43.7999 42.4317 43.0142L28.8677 28.9961C28.6853 29.1703 28.4915 29.3324 28.2876 29.4812Z" fill="white"/>
<path d="M29.6313 28.0936L45.8712 38.9424C46.5074 38.0019 47.0786 37.0195 47.5809 36.002L30.0104 27.4409C29.8989 27.6667 29.7723 27.8847 29.6313 28.0936Z" fill="white"/>
<path d="M30.5475 25.5896C30.5209 25.8396 30.4771 26.0875 30.4165 26.3315L49.4105 31.0042C49.6833 29.9035 49.8805 28.7857 50.0008 27.6584L30.5475 25.5896Z" fill="white"/>
<path d="M30.5475 24.4096L50.0008 22.3433C49.8805 21.2161 49.6833 20.0982 49.4105 18.9976L30.4165 23.6703C30.477 23.9135 30.5208 24.1605 30.5475 24.4096Z" fill="white"/>
<path d="M30.0104 22.5582L47.5809 13.9946C47.0786 12.9771 46.5074 11.9947 45.8712 11.0542L29.6313 21.903C29.7724 22.1127 29.899 22.3316 30.0104 22.5582Z" fill="white"/>
<path d="M28.8677 21.003L42.4317 6.98495C41.61 6.19928 40.736 5.46965 39.8156 4.80103L28.2876 20.5179C28.4915 20.6668 28.6853 20.8288 28.8677 21.003Z" fill="white"/>
<path d="M27.2601 19.9281L35.186 2.13856C34.1439 1.67876 33.0713 1.29035 31.9758 0.976074L26.5483 19.67C26.7912 19.7398 27.029 19.8261 27.2601 19.9281Z" fill="white"/>
</g>
<defs>
<clipPath id="clip0">
<rect width="50" height="50" fill="white"/>
</clipPath>
</defs>
</svg>
