<svg width="80" height="80" viewBox="0 0 80 80" fill="none" xmlns="http://www.w3.org/2000/svg">
<circle cx="40" cy="40" r="38.5" fill="white" stroke="#FF3333" stroke-width="3"/>
<path d="M40.5834 38.0121C42.8568 38.8304 44.8389 40.3003 46.2821 42.2382C47.7253 44.176 48.5658 46.4961 48.6987 48.9086C48.8315 51.3212 48.2508 53.7195 47.029 55.8041C45.8073 57.8887 43.9986 59.5673 41.8287 60.6303C39.6589 61.6933 37.224 62.0937 34.828 61.7814C32.432 61.4691 30.1811 60.4581 28.3562 58.8745C26.5313 57.2908 25.2132 55.2048 24.5665 52.8767C23.9199 50.5486 23.9732 48.0816 24.72 45.7836C24.8022 45.4932 24.9423 45.2225 25.1316 44.9875C25.321 44.7525 25.5558 44.5582 25.8221 44.4161C26.0883 44.274 26.3805 44.1871 26.6811 44.1605C26.9817 44.134 27.2846 44.1684 27.5716 44.2617C27.8586 44.3549 28.1239 44.5051 28.3515 44.7033C28.5791 44.9015 28.7644 45.1435 28.8962 45.4149C29.0281 45.6864 29.1038 45.9817 29.1189 46.2831C29.134 46.5845 29.0881 46.8858 28.9841 47.1691C28.4066 48.6871 28.2923 50.3422 28.6555 51.9251C29.0187 53.5081 29.8432 54.9478 31.0246 56.0622C32.206 57.1766 33.6914 57.9157 35.2928 58.1859C36.8943 58.4561 38.5399 58.2454 40.0216 57.5804C41.5033 56.9154 42.7546 55.8259 43.6171 54.4498C44.4796 53.0737 44.9148 51.4727 44.8674 49.8493C44.8201 48.2259 44.2924 46.653 43.3511 45.3294C42.4098 44.0059 41.0972 42.9913 39.5793 42.4137C39.4498 42.3716 39.3234 42.3306 39.1939 42.2885C38.628 42.1046 38.1584 41.7035 37.8883 41.1734C37.6182 40.6433 37.5697 40.0275 37.7536 39.4617C37.9374 38.8958 38.3385 38.4262 38.8687 38.156C39.3988 37.8859 40.0145 37.8375 40.5804 38.0213L40.5834 38.0121Z" fill="#FF3333"/>
<path d="M46.7944 18.8959C49.9588 19.873 52.6062 22.0655 54.1558 24.9923C55.7055 27.9191 56.0307 31.3411 55.0602 34.5075C54.978 34.7978 54.838 35.0686 54.6486 35.3036C54.4592 35.5385 54.2244 35.7329 53.9581 35.875C53.6919 36.0171 53.3997 36.104 53.0991 36.1305C52.7985 36.1571 52.4956 36.1227 52.2086 36.0294C51.9216 35.9361 51.6564 35.7859 51.4287 35.5878C51.2011 35.3896 51.0159 35.1476 50.884 34.8761C50.7521 34.6047 50.6764 34.3094 50.6613 34.008C50.6462 33.7066 50.6921 33.4052 50.7962 33.122C51.3767 31.6047 51.4942 29.9492 51.1337 28.3651C50.7731 26.781 49.9508 25.3395 48.7708 24.2228C47.5908 23.1062 46.106 22.3647 44.5045 22.0921C42.9029 21.8196 41.2564 22.0282 39.7735 22.6916C38.2905 23.355 37.0376 24.4434 36.1734 25.819C35.3091 27.1947 34.8724 28.7958 34.9183 30.4198C34.9643 32.0437 35.4909 33.6175 36.4316 34.9421C37.3723 36.2667 38.6847 37.2825 40.2028 37.8609C40.3323 37.903 40.4618 37.9451 40.5913 37.9872C41.1572 38.171 41.6268 38.5721 41.8969 39.1023C42.1671 39.6324 42.2155 40.2481 42.0317 40.814C41.8478 41.3798 41.4467 41.8495 40.9165 42.1196C40.3864 42.3897 39.7707 42.4382 39.2048 42.2543C37.6311 41.8253 36.1584 41.0877 34.8724 40.0843C33.5864 39.081 32.5128 37.8319 31.714 36.4098C30.9151 34.9876 30.4071 33.4209 30.2193 31.8006C30.0316 30.1803 30.1679 28.5388 30.6204 26.9717C31.0728 25.4046 31.8324 23.9431 32.8549 22.6723C33.8774 21.4014 35.1424 20.3465 36.5763 19.5691C38.0102 18.7916 39.5844 18.307 41.2073 18.1435C42.8302 17.98 44.4694 18.1408 46.0296 18.6167C46.2886 18.7008 46.5445 18.784 46.8035 18.8681L46.7944 18.8959Z" fill="#FF3333"/>
<path d="M47.9595 15.3102C48.5254 15.4941 48.9951 15.8952 49.2652 16.4254C49.5353 16.9555 49.5838 17.5712 49.3999 18.1371L34.6444 63.5498C34.4606 64.1156 34.0594 64.5853 33.5293 64.8554C32.9992 65.1255 32.3834 65.174 31.8176 64.9901C31.2517 64.8062 30.7821 64.4051 30.512 63.875C30.2418 63.3449 30.1934 62.7291 30.3772 62.1633L45.1327 16.7506C45.3166 16.1847 45.7177 15.7151 46.2478 15.445C46.778 15.1748 47.3937 15.1264 47.9595 15.3102Z" fill="#FF3333"/>
</svg>
