<svg width="101" height="101" viewBox="0 0 101 101" fill="none" xmlns="http://www.w3.org/2000/svg">
<g clip-path="url(#clip0)">
<circle r="40" transform="matrix(-1 -9.95639e-09 -9.95639e-09 1 50.6953 50)" fill="white"/>
<path d="M37.203 66.6596C37.3245 66.4661 37.483 66.2985 37.6693 66.1663C37.8556 66.0341 38.0662 65.9398 38.2889 65.889C38.5117 65.8382 38.7423 65.8318 38.9675 65.8701C39.1927 65.9084 39.4082 65.9907 39.6016 66.1124C41.8986 67.5427 44.4701 68.4753 47.1499 68.85C49.8298 69.2246 52.5584 69.033 55.1596 68.2874C57.7608 67.5419 60.1767 66.259 62.2512 64.5216C64.3257 62.7842 66.0127 60.6311 67.2033 58.2011C67.4053 57.7845 67.7646 57.4653 68.2021 57.3136C68.6395 57.1619 69.1193 57.1902 69.5359 57.3923C69.9525 57.5944 70.2718 57.9537 70.4234 58.3911C70.5751 58.8286 70.5468 59.3084 70.3447 59.725C68.9409 62.5951 66.9503 65.1385 64.5015 67.1907C62.0528 69.2429 59.2005 70.7581 56.1291 71.6384C53.0578 72.5187 49.8359 72.7445 46.6719 72.301C43.5078 71.8576 40.4721 70.7549 37.7611 69.0642C37.5659 68.9435 37.3965 68.7854 37.2627 68.599C37.1289 68.4126 37.0334 68.2016 36.9815 67.9781C36.9296 67.7546 36.9225 67.523 36.9605 67.2967C36.9985 67.0704 37.081 66.8539 37.203 66.6596Z" fill="#4D9F30"/>
<path d="M38.048 12.3425C59.0283 5.53667 81.6329 17.0679 88.4387 38.0482C95.2445 59.0284 83.7132 81.633 62.733 88.4388C41.7527 95.2446 19.1481 83.7134 12.3423 62.7331C5.53652 41.7529 17.0678 19.1483 38.048 12.3425ZM61.6597 85.1303C80.8161 78.9161 91.3443 58.2779 85.1301 39.1214C78.916 19.965 58.2777 9.43684 39.1213 15.651C19.9649 21.8652 9.43669 42.5034 15.6509 61.6598C21.865 80.8163 42.5033 91.3444 61.6597 85.1303Z" fill="#4D9F30"/>
<path d="M33.4 43.1038C35.5937 42.3922 37.9803 42.5812 40.0346 43.6291C42.089 44.6771 43.6429 46.4983 44.3545 48.692C44.4969 49.1307 44.4591 49.608 44.2495 50.0189C44.0399 50.4298 43.6756 50.7406 43.2369 50.8829C42.7982 51.0252 42.3208 50.9874 41.91 50.7778C41.4991 50.5682 41.1883 50.204 41.046 49.7653C40.619 48.449 39.6867 47.3563 38.4541 46.7275C37.2214 46.0988 35.7895 45.9854 34.4733 46.4123C33.1571 46.8393 32.0644 47.7716 31.4356 49.0043C30.8068 50.2369 30.6934 51.6688 31.1204 52.985C31.2627 53.4238 31.2249 53.9011 31.0153 54.3119C30.8057 54.7228 30.4415 55.0336 30.0027 55.1759C29.564 55.3182 29.0867 55.2805 28.6758 55.0709C28.265 54.8613 27.9542 54.497 27.8119 54.0583C27.1002 51.8646 27.2892 49.4781 28.3372 47.4237C29.3852 45.3693 31.2064 43.8154 33.4 43.1038Z" fill="#4D9F30"/>
<path d="M57.5886 44.399C57.731 44.8377 57.6932 45.315 57.4836 45.7259C57.274 46.1368 56.9097 46.4475 56.471 46.5899C56.0323 46.7322 55.555 46.6944 55.1441 46.4848C54.7332 46.2752 54.4224 45.911 54.2801 45.4722C53.5685 43.2785 53.7575 40.892 54.8055 38.8376C55.8535 36.7833 57.6746 35.2294 59.8683 34.5177C62.062 33.8061 64.4485 33.9951 66.5029 35.0431C68.5573 36.0911 70.1112 37.9122 70.8228 40.1059C70.9651 40.5447 70.9273 41.022 70.7177 41.4329C70.5081 41.8437 70.1439 42.1545 69.7052 42.2968C69.2664 42.4392 68.7891 42.4014 68.3782 42.1918C67.9674 41.9822 67.6566 41.6179 67.5143 41.1792C67.0873 39.863 66.1549 38.7703 64.9223 38.1415C63.6897 37.5127 62.2578 37.3993 60.9416 37.8263C59.6253 38.2532 58.5327 39.1856 57.9039 40.4182C57.2751 41.6508 57.1617 43.0828 57.5886 44.399Z" fill="#4D9F30"/>
</g>
<defs>
<clipPath id="clip0">
<rect width="80" height="80" fill="white" transform="matrix(-0.951204 0.308562 0.308562 0.951204 76.0962 0)"/>
</clipPath>
</defs>
</svg>
