<svg width="40" height="40" viewBox="0 0 40 40" fill="none" xmlns="http://www.w3.org/2000/svg">
<g clip-path="url(#clip0)">
<circle r="40" transform="matrix(-0.951204 -0.308562 -0.308562 0.951204 0.410622 39.7225)" fill="white"/>
<path d="M11.2181 25.703C11.3057 25.6298 11.4069 25.5745 11.516 25.5403C11.625 25.5062 11.7396 25.4939 11.8534 25.5041C11.9672 25.5143 12.0779 25.5468 12.1791 25.5998C12.2803 25.6527 12.3701 25.7251 12.4433 25.8128C13.3151 26.8475 14.3942 27.6877 15.6109 28.2794C16.8277 28.871 18.155 29.2009 19.5071 29.2476C20.8593 29.2943 22.2062 29.0569 23.4609 28.5506C24.7156 28.0444 25.8501 27.2806 26.7912 26.3086C26.9516 26.1417 27.1717 26.0453 27.4032 26.0406C27.6347 26.036 27.8585 26.1235 28.0254 26.2838C28.1924 26.4442 28.2888 26.6643 28.2934 26.8958C28.2981 27.1273 28.2106 27.3511 28.0502 27.518C26.9398 28.6665 25.6006 29.569 24.1194 30.1672C22.6381 30.7655 21.0478 31.0461 19.4512 30.9909C17.8547 30.9357 16.2875 30.546 14.8511 29.847C13.4147 29.1479 12.141 28.1551 11.1125 26.9327C11.0383 26.8452 10.9821 26.7439 10.9473 26.6346C10.9124 26.5253 10.8995 26.4102 10.9093 26.2959C10.9191 26.1816 10.9514 26.0704 11.0044 25.9686C11.0574 25.8669 11.13 25.7766 11.2181 25.703Z" fill="#4D9F30"/>
<path d="M20 -1.74846e-06C31.0283 -7.84334e-07 40 8.97174 40 20C40 31.0283 31.0283 40 20 40C8.97174 40 -2.71258e-06 31.0283 -1.74846e-06 20C-7.84334e-07 8.97174 8.97174 -2.71258e-06 20 -1.74846e-06ZM20 38.2609C30.0696 38.2609 38.2609 30.0696 38.2609 20C38.2609 9.93043 30.0696 1.73913 20 1.73913C9.93044 1.73913 1.73913 9.93043 1.73913 20C1.73913 30.0696 9.93043 38.2609 20 38.2609Z" fill="#4D9F30"/>
<path d="M13.0433 13.9131C14.1964 13.9131 15.3023 14.3712 16.1177 15.1865C16.933 16.0019 17.3911 17.1078 17.3911 18.2609C17.3911 18.4915 17.2995 18.7127 17.1364 18.8758C16.9733 19.0389 16.7522 19.1305 16.5215 19.1305C16.2909 19.1305 16.0697 19.0389 15.9067 18.8758C15.7436 18.7127 15.652 18.4915 15.652 18.2609C15.652 17.569 15.3771 16.9055 14.8879 16.4163C14.3987 15.9271 13.7352 15.6522 13.0433 15.6522C12.3514 15.6522 11.6879 15.9271 11.1987 16.4163C10.7094 16.9055 10.4346 17.569 10.4346 18.2609C10.4346 18.4915 10.343 18.7127 10.1799 18.8758C10.0168 19.0389 9.79565 19.1305 9.56503 19.1305C9.3344 19.1305 9.11323 19.0389 8.95015 18.8758C8.78708 18.7127 8.69546 18.4915 8.69546 18.2609C8.69546 17.1078 9.15354 16.0019 9.96891 15.1865C10.7843 14.3712 11.8902 13.9131 13.0433 13.9131Z" fill="#4D9F30"/>
<path d="M24.3477 18.2609C24.3477 18.4915 24.2561 18.7127 24.093 18.8757C23.9299 19.0388 23.7087 19.1304 23.4781 19.1304C23.2475 19.1304 23.0263 19.0388 22.8632 18.8757C22.7002 18.7127 22.6085 18.4915 22.6085 18.2609C22.6085 17.1077 23.0666 16.0018 23.882 15.1865C24.6974 14.3711 25.8033 13.913 26.9564 13.913C28.1095 13.913 29.2154 14.3711 30.0308 15.1865C30.8461 16.0018 31.3042 17.1077 31.3042 18.2609C31.3042 18.4915 31.2126 18.7127 31.0495 18.8757C30.8864 19.0388 30.6653 19.1304 30.4346 19.1304C30.204 19.1304 29.9828 19.0388 29.8198 18.8757C29.6567 18.7127 29.5651 18.4915 29.5651 18.2609C29.5651 17.569 29.2902 16.9055 28.801 16.4162C28.3118 15.927 27.6482 15.6522 26.9564 15.6522C26.2645 15.6522 25.601 15.927 25.1117 16.4162C24.6225 16.9054 24.3477 17.569 24.3477 18.2609Z" fill="#4D9F30"/>
</g>
<defs>
<clipPath id="clip0">
<rect width="40" height="40" fill="white" transform="matrix(-1 -8.74228e-08 -8.74228e-08 1 40 0)"/>
</clipPath>
</defs>
</svg>
