<svg width="40" height="40" viewBox="0 0 40 40" fill="none" xmlns="http://www.w3.org/2000/svg">
<circle cx="20" cy="20" r="19.5" fill="white" stroke="#FF3333"/>
<path d="M20.5144 18.8433C21.6511 19.2524 22.6421 19.9874 23.3637 20.9563C24.0853 21.9252 24.5056 23.0852 24.572 24.2915C24.6384 25.4978 24.348 26.697 23.7372 27.7393C23.1263 28.7816 22.2219 29.6209 21.137 30.1524C20.0521 30.6839 18.8347 30.884 17.6367 30.7279C16.4387 30.5718 15.3132 30.0663 14.4007 29.2744C13.4883 28.4826 12.8293 27.4396 12.5059 26.2755C12.1826 25.1115 12.2093 23.878 12.5826 22.729C12.6238 22.5838 12.6938 22.4485 12.7885 22.331C12.8832 22.2135 13.0006 22.1163 13.1337 22.0453C13.2668 21.9742 13.4129 21.9308 13.5632 21.9175C13.7135 21.9042 13.8649 21.9214 14.0085 21.968C14.152 22.0147 14.2846 22.0898 14.3984 22.1889C14.5122 22.2879 14.6048 22.409 14.6708 22.5447C14.7367 22.6804 14.7746 22.828 14.7821 22.9788C14.7897 23.1295 14.7667 23.2801 14.7147 23.4218C14.426 24.1807 14.3688 25.0083 14.5504 25.7998C14.732 26.5913 15.1442 27.3111 15.735 27.8683C16.3257 28.4255 17.0684 28.795 17.8691 28.9302C18.6698 29.0653 19.4926 28.9599 20.2335 28.6274C20.9743 28.2949 21.5999 27.7502 22.0312 27.0621C22.4625 26.3741 22.68 25.5736 22.6564 24.7619C22.6327 23.9502 22.3688 23.1637 21.8982 22.5019C21.4276 21.8402 20.7713 21.3328 20.0123 21.0441C19.9476 21.023 19.8844 21.0025 19.8196 20.9815C19.5367 20.8895 19.3019 20.689 19.1668 20.4239C19.0317 20.1588 19.0075 19.851 19.0994 19.5681C19.1914 19.2851 19.3919 19.0503 19.657 18.9152C19.9221 18.7802 20.2299 18.756 20.5129 18.8479L20.5144 18.8433Z" fill="#FF3333"/>
<path d="M23.6199 9.28516C25.202 9.77371 26.5258 10.87 27.3006 12.3334C28.0754 13.7968 28.238 15.5078 27.7528 17.091C27.7116 17.2361 27.6416 17.3715 27.5469 17.489C27.4523 17.6065 27.3348 17.7037 27.2017 17.7747C27.0686 17.8458 26.9225 17.8892 26.7722 17.9025C26.6219 17.9157 26.4705 17.8985 26.327 17.8519C26.1835 17.8053 26.0508 17.7302 25.937 17.6311C25.8232 17.532 25.7306 17.411 25.6647 17.2753C25.5987 17.1396 25.5608 16.9919 25.5533 16.8412C25.5458 16.6905 25.5687 16.5398 25.6207 16.3982C25.911 15.6395 25.9698 14.8118 25.7895 14.0198C25.6092 13.2277 25.1981 12.5069 24.6081 11.9486C24.018 11.3903 23.2757 11.0196 22.4749 10.8833C21.6741 10.747 20.8509 10.8513 20.1094 11.183C19.3679 11.5147 18.7415 12.0589 18.3093 12.7467C17.8772 13.4346 17.6588 14.2351 17.6818 15.0471C17.7048 15.8591 17.9681 16.646 18.4385 17.3083C18.9088 17.9706 19.565 18.4785 20.3241 18.7677C20.3888 18.7887 20.4536 18.8098 20.5183 18.8308C20.8012 18.9227 21.0361 19.1233 21.1711 19.3884C21.3062 19.6534 21.3304 19.9613 21.2385 20.2442C21.1466 20.5271 20.946 20.762 20.6809 20.897C20.4159 21.0321 20.108 21.0563 19.8251 20.9644C19.0382 20.7499 18.3019 20.3811 17.6589 19.8794C17.0159 19.3777 16.4791 18.7532 16.0796 18.0421C15.6802 17.331 15.4262 16.5476 15.3323 15.7375C15.2384 14.9274 15.3066 14.1066 15.5328 13.3231C15.7591 12.5395 16.1389 11.8088 16.6501 11.1734C17.1613 10.5379 17.7938 10.0105 18.5108 9.62175C19.2277 9.23301 20.0148 8.99072 20.8263 8.90897C21.6377 8.82722 22.4574 8.90764 23.2374 9.14556C23.3669 9.18764 23.4949 9.22921 23.6244 9.27128L23.6199 9.28516Z" fill="#FF3333"/>
<path d="M24.2024 7.49228C24.4854 7.58421 24.7202 7.78477 24.8552 8.04984C24.9903 8.3149 25.0145 8.62277 24.9226 8.9057L17.5449 31.612C17.4529 31.895 17.2524 32.1298 16.9873 32.2649C16.7222 32.3999 16.4144 32.4241 16.1314 32.3322C15.8485 32.2403 15.6137 32.0397 15.4786 31.7747C15.3436 31.5096 15.3193 31.2017 15.4113 30.9188L22.789 8.21245C22.8809 7.92952 23.0815 7.6947 23.3466 7.55964C23.6116 7.42458 23.9195 7.40035 24.2024 7.49228Z" fill="#FF3333"/>
</svg>
