<svg width="180" height="237" viewBox="0 0 180 237" fill="none" xmlns="http://www.w3.org/2000/svg">
<g clip-path="url(#clip0)">
<path d="M115.996 53.5298C116.332 54.3272 116.918 54.9933 117.665 55.4279C118.413 55.8625 119.28 56.042 120.138 55.9394C120.996 55.8369 121.797 55.4577 122.421 54.8591C123.046 54.2605 123.459 53.4749 123.599 52.6206L134.073 52.2983C132.545 63.6005 114.273 64.1645 112.596 52.5285C114.089 52.494 115.238 51.93 115.996 53.5298Z" fill="white"/>
<path d="M96.4831 52.5859C95.0819 63.4853 77.7745 61.7243 74.6621 52.8391C75.9025 52.8391 77.0509 52.3097 77.763 53.5988C80.0599 57.0516 85.8597 57.0516 87.1345 52.5859H96.4831Z" fill="white"/>
<path d="M136.048 17.6552L138.62 13.1436L138.965 13.2471C139.022 15.0541 138.264 17.1143 138.127 19.0018C137.468 18.5018 136.773 18.0517 136.048 17.6552Z" fill="#1D1D1D"/>
<path d="M68.2421 11.1294C70.4701 13.2816 71.2396 17.4941 73.525 19.5887C71.8942 19.7154 70.2749 19.9225 68.6555 20.1872C68.3684 17.1948 67.7367 14.1794 68.2421 11.1294Z" fill="#1D1D1D"/>
<path d="M139.976 20.6247C139.666 21.4764 139.287 22.0634 138.827 22.213C138.201 21.2763 137.94 20.1419 138.092 19.0249C138.757 19.5132 139.386 20.0478 139.976 20.6247Z" fill="#1D1D1D"/>
<path d="M138.62 13.1437L136.048 17.6554C135.424 17.2823 134.775 16.9516 134.107 16.6656C134.785 14.5709 137.621 11.7626 138.15 10.2434C141.595 7.32001 141.446 16.7231 139.976 20.6018C139.397 20.0261 138.779 19.4916 138.127 19.002C138.264 17.0914 139.022 15.0313 138.965 13.2473L138.62 13.1437Z" fill="#1D1D1D"/>
<path d="M136.048 17.6553L135.256 19.048C135.004 19.0001 134.766 18.8937 134.562 18.7371C134.358 18.5806 134.194 18.3784 134.082 18.1468C133.971 17.9151 133.915 17.6604 133.919 17.4032C133.923 17.1459 133.988 16.8933 134.107 16.6655C134.776 16.9515 135.424 17.2822 136.048 17.6553Z" fill="#1D1D1D"/>
<path d="M135.588 46.0374C135.588 46.1525 135.588 46.2791 135.588 46.3942C113.515 47.3495 90.5338 46.8316 68.7588 46.3942C90.8209 43.7241 113.411 44.3686 135.588 46.0374Z" fill="#1D1D1D"/>
<path d="M126.814 13.6273C129.628 9.5875 132.086 4.97226 136.186 2.04889C138.666 1.08211 140.573 1.9338 142.054 4.09755L140.906 4.94924C136.668 8.5977 133.257 13.8229 128.192 16.1363C126.791 16.355 125.39 16.5391 123.977 16.6772L123.828 15.3882C124.437 15.3851 125.034 15.2205 125.558 14.9112C126.083 14.6019 126.516 14.1589 126.814 13.6273Z" fill="#1D1D1D"/>
<path d="M126.102 215.132C127.321 217.451 127.996 220.017 128.078 222.636C135.956 222.636 144.03 223.845 152.035 224.064C153.034 225.077 153.867 226.242 154.504 227.516C145.316 227.988 136.129 227.724 126.998 227.367C126.332 232.868 117.259 235.619 104.488 236.574C104.043 235.779 103.552 235.011 103.018 234.272C102.231 233.192 101.359 232.176 100.411 231.234C106.467 230.942 112.494 230.203 118.442 229.024C124.035 226.561 125.218 219.402 123.978 215.524L126.102 215.132Z" fill="#1D1D1D"/>
<path d="M123.977 215.546C122.576 212.842 119.544 211.299 116.983 209.792C109.805 205.902 102.053 205.119 94.1746 204.843L94.2664 201.988L93.3477 199.169C101.318 199.67 109.116 201.706 116.317 205.165C114.663 185.323 112.722 165.654 111.252 145.834C112.849 147.526 113.871 150.438 114.594 153.753C115.996 160.359 116.191 168.819 117.087 173.653C118.005 184.322 119.877 194.968 120.176 205.671C120.127 206.27 120.217 206.872 120.441 207.429C120.664 207.987 121.014 208.484 121.462 208.883C123.34 210.694 124.914 212.796 126.125 215.109L123.977 215.546Z" fill="#1D1D1D"/>
<path d="M142.192 68.4573C143.995 47.4988 144.765 25.6772 140.86 4.94886L142.008 4.09717C149.577 15.1576 145.511 60.4929 147.119 68.699L172.477 70.0916C172.477 70.2412 172.477 70.3794 172.477 70.529C164.048 71.1275 155.583 70.4139 147.131 70.8052C147.487 72.8654 145.707 77.8259 148.371 78.1827C158.811 80.8298 169.962 82.6828 179.942 86.1471C168.952 84.3056 158.122 81.5434 147.188 79.5063C143.547 122.448 142.686 165.654 140.205 208.733C145.557 211.127 177.852 217.284 168.917 226.124C164.106 226.848 159.261 227.321 154.4 227.539C153.764 226.265 152.93 225.1 151.931 224.086C157.015 224.315 162.107 223.882 167.08 222.797C129.375 204.118 136.369 223.787 137.369 184.529C139.172 149.115 138.31 113.654 141.446 78.3093C133.096 76.0074 124.058 75.7197 116.179 72.382C125.137 72.969 132.89 74.8795 141.629 76.4908C141.779 74.4882 141.917 72.5892 142.054 70.6211C133.177 69.9305 124.311 69.7464 115.433 69.1594C114.755 69.1594 113.997 69.1594 114.078 67.9394C123.587 67.7668 132.89 68.043 142.192 68.4573Z" fill="#1D1D1D"/>
<path d="M111.976 86.3889C108.634 82.9361 104.855 83.8223 101.215 86.2278C100.767 86.4349 100.262 86.9183 99.7792 86.2853C99.3772 83.8453 103.879 82.5678 105.843 81.9923C105.556 75.34 105.269 68.7221 104.97 61.9661C102.788 61.7359 99.4461 59.8139 101.881 57.535C105.326 54.5311 113.17 58.3982 107.348 61.7935C107.233 68.5379 107.118 75.2018 107.003 82.0729C108.136 82.2951 109.19 82.8104 110.063 83.5675C110.935 84.3246 111.595 85.2973 111.976 86.3889Z" fill="#1D1D1D"/>
<path d="M94.5651 29.2801C93.164 27.8299 101.628 21.2235 103.087 19.9805C102.363 22.5011 99.7907 23.675 98.3206 25.7352L98.5044 26.0114C99.9055 25.4129 108.312 19.4856 106.854 23.9052C105.981 25.7697 104.43 27.358 104.051 29.3606L109.197 23.8016C112.883 26.8286 108.117 30.0857 108.209 33.5846C111.976 28.9808 114.124 22.7543 119.108 19.3936C119.225 20.2307 119.055 21.0829 118.626 21.8105C115.375 26.8631 113.423 33.0321 109.013 37.187C105.085 39.1666 106.578 31.5589 107.394 29.5908C105.797 30.8453 101.869 35.5296 101.651 31.4899C102.604 29.0959 104.683 27.0473 105.257 24.4692C102.524 25.3899 96.7472 30.7533 94.5651 29.2801Z" fill="#1D1D1D"/>
<path d="M56.2983 76.3989C69.4024 74.4884 82.7132 70.886 95.599 72.221C82.7476 74.4538 69.3909 75.6738 56.3098 77.711C56.3098 77.2736 56.3098 76.8363 56.2983 76.3989Z" fill="#1D1D1D"/>
<path d="M56.0571 67.974C69.9077 67.974 83.7123 67.1799 97.5514 67.974C98.0223 67.974 98.5621 67.974 98.4472 68.9178L56.126 69.735L56.0571 67.974Z" fill="#1D1D1D"/>
<path d="M78.2224 204.199C68.7245 203.934 61.6729 198.041 54.1045 193.322L54.9429 191.987C62.0979 196.591 69.4481 200.642 76.9246 198.674C77.5793 186.693 74.731 173.711 76.6834 162.178C78.3258 163.329 78.5899 165.447 78.9804 167.357C79.0493 167.726 79.1297 168.082 79.2101 168.416C80.5653 178.51 81.2544 188.661 82.0698 198.801C85.8827 198.801 89.6612 198.87 93.3937 199.192L94.3125 202.012L94.2206 204.866C88.8228 204.682 83.4824 204.717 78.2224 204.199Z" fill="#1D1D1D"/>
<path d="M112.596 52.5285C114.273 64.1645 132.545 63.6005 134.073 52.2983L123.599 52.6206C123.459 53.4749 123.046 54.2605 122.421 54.8591C121.797 55.4577 120.996 55.8369 120.138 55.9394C119.28 56.042 118.413 55.8625 117.665 55.4279C116.918 54.9933 116.332 54.3272 115.996 53.5298C115.238 51.93 114.089 52.494 112.596 52.5285ZM77.7401 53.5989C77.0281 52.3099 75.8796 52.8278 74.6393 52.8393C77.7746 61.7245 95.0821 63.4854 96.4602 52.5861H87.0887C85.8369 57.0402 80.0486 57.0057 77.7401 53.5989ZM73.3989 51.297C93.8188 50.077 115.18 49.4325 135.681 51.2165C134.658 66.7541 114.641 67.9165 111.838 52.471H98.2978C95.0132 67.6518 76.3505 64.8665 73.3989 51.297Z" fill="#1D1D1D"/>
<path d="M75.8453 19.4277C75.9879 19.8729 76.103 20.3265 76.1898 20.7858C75.201 20.7007 74.2662 20.2969 73.5254 19.6349C74.2949 19.5083 75.0414 19.4623 75.8453 19.4277Z" fill="#1D1D1D"/>
<path d="M68.6555 20.1875C68.6555 20.5558 68.6555 20.9241 68.7359 21.3384C67.3807 21.5111 67.1281 21.442 66.9673 20.5443L68.6555 20.1875Z" fill="#1D1D1D"/>
<path d="M67.9553 9.27626C71.7598 11.5571 74.5745 15.1826 75.8453 19.439C75.0643 19.439 74.2949 19.5196 73.5484 19.6001C71.2514 17.5054 70.4934 13.293 68.2654 11.1408C67.7601 14.1907 68.3917 17.2062 68.6788 20.1986L66.9906 20.5094C66.9217 18.3801 63.9356 7.61892 67.9553 9.27626Z" fill="#1D1D1D"/>
<path d="M92.8768 17.7243C81.9318 19.0249 76.6489 5.39783 66.5308 3.06144C62.2585 2.42843 63.0854 9.62176 61.6958 12.3725C58.8131 26.644 57.9403 41.1458 55.3907 55.5094C55.2873 53.7485 55.1954 51.9876 55.1035 50.2382C54.2766 34.0215 54.3455 17.1258 59.6974 2.00259C60.0881 1.55213 60.5451 1.16402 61.0526 0.851654C61.8679 0.407066 62.7656 0.134786 63.69 0.051642C64.6145 -0.0315018 65.5462 0.0762562 66.4275 0.36826C68.2733 0.820716 70.0236 1.60027 71.5956 2.67012C73.4561 4.00521 75.1673 5.57048 76.9934 6.92858C78.8195 8.28668 80.6456 9.40308 82.4946 10.5885C88.0647 14.1795 94.4846 15.1923 101.008 15.1923C104.155 15.1923 107.29 15.0081 110.437 14.9506C113.584 14.893 116.754 15.2613 119.9 15.2498C121.049 15.2498 122.45 15.457 123.759 15.3419L123.909 16.6309C113.618 17.7473 103.202 16.9417 92.8768 17.7243Z" fill="#1D1D1D"/>
<path d="M54.9428 191.987L54.1044 193.322C50.1532 190.626 45.7067 188.744 41.0233 187.786C31.1579 185.231 28.6313 196.165 22.3721 200.884C16.9858 202.84 21.4993 189.443 23.5206 187.729C33.4204 176.875 43.9634 184.989 54.9428 191.987Z" fill="#1D1D1D"/>
<path d="M52.6347 67.9742H56.0801L56.149 69.7581L52.1179 69.8387C51.3828 72.3132 50.6937 74.6496 49.9243 77.2046C52.0489 77.009 54.1851 76.7443 56.3213 76.4335C56.3213 76.8709 56.3213 77.3082 56.3213 77.7456L51.9111 78.4822C48.8562 78.931 49.4304 78.4822 48.5691 81.4861C46.8775 87.6256 44.4195 93.5267 41.2533 99.0493C28.7809 122.206 10.2675 145.087 11.3012 172.709C11.3701 178.245 13.2536 183.977 12.4496 189.478C12.3597 190.04 12.2408 190.597 12.0936 191.147C10.2675 200.711 -1.09084 214.983 10.2446 222.049L8.2003 222.372C-6.61499 212.324 2.5613 201.471 6.38571 185.542C-1.09085 145.397 25.9097 112.861 43.8259 79.7712L25.4503 82.0731L25.347 81.7623C31.3305 80.0244 37.6471 79.3914 43.7225 78.2059C46.3985 76.7903 46.4903 72.7736 47.6848 69.9192H30.1706C30.1706 69.7811 30.1706 69.643 30.1131 69.5049C36.1656 68.4806 42.3099 68.7108 48.4887 68.0547C52.6462 51.0555 52.7151 33.3886 56.0112 16.2628C56.7462 12.4302 56.8036 8.44794 58.2392 4.75345C58.6029 3.7568 59.1224 2.82441 59.7782 1.99121C54.4033 17.1145 54.3344 34.0102 55.1843 50.2268C55.2762 51.9762 55.368 53.6796 55.4714 55.4981C54.6445 59.6875 53.7602 63.8308 52.6347 67.9742Z" fill="#1D1D1D"/>
<path d="M10.1869 222.084C27.9307 229.864 71.5612 233.018 100.411 231.291C101.359 232.234 102.23 233.25 103.018 234.33C103.552 235.068 104.042 235.837 104.488 236.632C74.329 238.934 23.5666 231.107 14.2984 225.905C12.1655 224.905 10.1081 223.751 8.14258 222.452L10.1869 222.084Z" fill="#1D1D1D"/>
</g>
<defs>
<clipPath id="clip0">
<rect width="180" height="237" fill="white"/>
</clipPath>
</defs>
</svg>
