<svg width="36" height="35" viewBox="0 0 36 35" fill="none" xmlns="http://www.w3.org/2000/svg">
<g clip-path="url(#clip0)">
<path d="M18.3653 14.0293C18.4401 14.0425 18.5143 14.059 18.5883 14.077L21.3817 2.80337C21.0534 2.72287 20.7213 2.65165 20.3836 2.5921C20.0458 2.53255 19.7082 2.48567 19.3734 2.44925L18.1425 13.9984C18.2155 14.0063 18.2902 14.016 18.3653 14.0293Z" fill="#1D1D1D"/>
<path d="M17.4331 13.9969L16.18 2.44268C15.5033 2.51377 14.8324 2.63094 14.172 2.79338L16.9879 14.0749C17.1343 14.0389 17.2831 14.0128 17.4331 13.9969Z" fill="#1D1D1D"/>
<path d="M16.3231 14.3154L11.1744 3.87914C10.5639 4.17684 9.97437 4.51523 9.40981 4.892L15.9317 14.5405C16.057 14.4569 16.1877 14.3817 16.3231 14.3154Z" fill="#1D1D1D"/>
<path d="M15.3881 14.9917L6.96426 6.92921C6.49269 7.41624 6.05497 7.93463 5.65414 8.48081L15.0976 15.3362C15.1864 15.2149 15.2835 15.0998 15.3881 14.9917Z" fill="#1D1D1D"/>
<path d="M14.744 15.9463L4.06043 11.2297C3.78595 11.8485 3.55411 12.4854 3.3665 13.1357L14.59 16.3689C14.6316 16.2247 14.683 16.0835 14.744 15.9463Z" fill="#1D1D1D"/>
<path d="M14.4678 17.0627L2.81556 16.2608C2.76943 16.9361 2.76948 17.6138 2.81574 18.2892L14.4682 17.511C14.4578 17.3618 14.4577 17.212 14.4678 17.0627Z" fill="#1D1D1D"/>
<path d="M14.5913 18.2069L3.37241 21.4205C3.56226 22.0708 3.79628 22.7076 4.07285 23.3266L14.7462 18.6315C14.685 18.4935 14.6333 18.3517 14.5913 18.2069Z" fill="#1D1D1D"/>
<path d="M15.1022 19.2397L5.67362 26.0758C6.07526 26.6229 6.51354 27.1425 6.98542 27.6311L15.3937 19.5853C15.2889 19.4767 15.1915 19.3612 15.1022 19.2397Z" fill="#1D1D1D"/>
<path d="M15.9356 20.039L9.43105 29.677C9.99599 30.0557 10.5864 30.3953 11.1981 30.6934L16.3278 20.2646C16.1921 20.1984 16.061 20.123 15.9356 20.039Z" fill="#1D1D1D"/>
<path d="M17.2151 20.5527C17.1403 20.5395 17.0661 20.523 16.9922 20.5049L14.1988 31.7786C14.5267 31.859 14.8592 31.9303 15.1969 31.9899C15.5346 32.0494 15.8723 32.0963 16.2071 32.1327L17.438 20.5835C17.3646 20.5756 17.2899 20.5659 17.2151 20.5527Z" fill="#1D1D1D"/>
<path d="M18.1481 20.5853L19.4015 32.1396C20.0783 32.0686 20.7492 31.9514 21.4096 31.7889L18.5937 20.5075C18.4471 20.5435 18.2982 20.5695 18.1481 20.5853Z" fill="#1D1D1D"/>
<path d="M19.2583 20.2667L24.407 30.703C25.0175 30.4053 25.607 30.0669 26.1716 29.6901L19.6497 20.0416C19.5244 20.1251 19.3936 20.2003 19.2583 20.2667Z" fill="#1D1D1D"/>
<path d="M20.1926 19.5903L28.6164 27.6528C29.088 27.1658 29.5257 26.6474 29.9266 26.1012L20.4831 19.2458C20.3942 19.367 20.2971 19.4821 20.1926 19.5903Z" fill="#1D1D1D"/>
<path d="M20.9906 18.2128C20.9491 18.357 20.8976 18.4982 20.8367 18.6354L31.5202 23.3521C31.7947 22.7332 32.0265 22.0964 32.2141 21.446L20.9906 18.2128Z" fill="#1D1D1D"/>
<path d="M21.1131 17.519L32.7653 18.3209C32.8115 17.6456 32.8114 16.9679 32.7652 16.2925L21.1127 17.0707C21.1231 17.2199 21.1232 17.3697 21.1131 17.519Z" fill="#1D1D1D"/>
<path d="M20.9892 16.3751L32.208 13.1616C32.0182 12.5112 31.7842 11.8744 31.5076 11.2555L20.8342 15.9506C20.8954 16.0885 20.9472 16.2303 20.9892 16.3751Z" fill="#1D1D1D"/>
<path d="M20.4787 15.3424L29.9073 8.50635C29.5057 7.95921 29.0674 7.43959 28.5955 6.95103L20.1879 14.997C20.2924 15.1056 20.3895 15.221 20.4787 15.3424Z" fill="#1D1D1D"/>
<path d="M19.645 14.5433L26.1496 4.9052C25.5845 4.5268 24.9942 4.18723 24.3826 3.88887L19.2533 14.3177C19.3889 14.384 19.5197 14.4593 19.645 14.5433Z" fill="#1D1D1D"/>
</g>
<defs>
<clipPath id="clip0">
<rect width="29.8522" height="29.8522" fill="white" transform="translate(5.68262) rotate(10)"/>
</clipPath>
</defs>
</svg>
