<svg width="101" height="101" viewBox="0 0 101 101" fill="none" xmlns="http://www.w3.org/2000/svg">
<g clip-path="url(#clip0)">
<circle cx="50.0854" cy="50" r="40" fill="white"/>
<path d="M28.622 62.973C28.7368 63.1706 28.8894 63.3436 29.071 63.4822C29.2526 63.6207 29.4598 63.7222 29.6807 63.7807C29.9015 63.8391 30.1318 63.8535 30.3582 63.823C30.5846 63.7925 30.8028 63.7177 31.0003 63.6028C33.3453 62.2526 35.9474 61.4094 38.6386 61.1275C41.3298 60.8456 44.0502 61.1314 46.6241 61.9663C49.198 62.8013 51.5681 64.1668 53.5814 65.9748C55.5947 67.7828 57.2063 69.9929 58.3123 72.4625C58.4998 72.8859 58.8479 73.2173 59.2798 73.384C59.7118 73.5507 60.1923 73.539 60.6156 73.3514C61.0389 73.1639 61.3704 72.8158 61.5371 72.3838C61.7038 71.9519 61.692 71.4714 61.5045 71.0481C60.2006 68.1312 58.299 65.5206 55.9226 63.3851C53.5462 61.2495 50.7479 59.6367 47.7088 58.6508C44.6697 57.665 41.4575 57.3281 38.28 57.662C35.1025 57.9959 32.0305 58.9931 29.2628 60.5892C29.0636 60.703 28.8888 60.8552 28.7487 61.0368C28.6085 61.2185 28.5057 61.4261 28.4462 61.6477C28.3866 61.8693 28.3715 62.1005 28.4017 62.3279C28.4318 62.5554 28.5067 62.7746 28.622 62.973Z" fill="#FF3333"/>
<path d="M62.7327 12.3425C41.7525 5.53667 19.1479 17.0679 12.3421 38.0482C5.5363 59.0284 17.0675 81.633 38.0478 88.4388C59.0281 95.2446 81.6326 83.7134 88.4384 62.7331C95.2442 41.7529 83.713 19.1483 62.7327 12.3425ZM39.1211 85.1303C19.9646 78.9161 9.43647 58.2779 15.6506 39.1214C21.8648 19.965 42.5031 9.43684 61.6595 15.651C80.8159 21.8652 91.3441 42.5034 85.1299 61.6598C78.9157 80.8163 58.2775 91.3444 39.1211 85.1303Z" fill="#FF3333"/>
<path d="M67.3807 43.104C65.187 42.3924 62.8005 42.5814 60.7461 43.6294C58.6918 44.6774 57.1378 46.4985 56.4262 48.6922C56.2839 49.131 56.3217 49.6083 56.5313 50.0192C56.7409 50.43 57.1051 50.7408 57.5439 50.8831C57.9826 51.0255 58.4599 50.9877 58.8708 50.7781C59.2817 50.5685 59.5924 50.2042 59.7348 49.7655C60.1617 48.4493 61.0941 47.3566 62.3267 46.7278C63.5593 46.099 64.9912 45.9856 66.3075 46.4126C67.6237 46.8395 68.7164 47.7719 69.3452 49.0045C69.974 50.2371 70.0873 51.6691 69.6604 52.9853C69.5181 53.424 69.5558 53.9013 69.7654 54.3122C69.975 54.7231 70.3393 55.0338 70.778 55.1762C71.2168 55.3185 71.6941 55.2807 72.1049 55.0711C72.5158 54.8615 72.8266 54.4973 72.9689 54.0585C73.6805 51.8648 73.4916 49.4783 72.4436 47.4239C71.3956 45.3696 69.5744 43.8157 67.3807 43.104Z" fill="#FF3333"/>
<path d="M43.1921 44.3988C43.0498 44.8376 43.0876 45.3149 43.2972 45.7258C43.5068 46.1366 43.871 46.4474 44.3098 46.5897C44.7485 46.7321 45.2258 46.6943 45.6367 46.4847C46.0475 46.2751 46.3583 45.9108 46.5007 45.4721C47.2123 43.2784 47.0233 40.8919 45.9753 38.8375C44.9273 36.7831 43.1062 35.2292 40.9125 34.5176C38.7188 33.806 36.3322 33.995 34.2779 35.043C32.2235 36.091 30.6696 37.9121 29.958 40.1058C29.8156 40.5446 29.8534 41.0219 30.063 41.4327C30.2726 41.8436 30.6369 42.1544 31.0756 42.2967C31.5143 42.439 31.9917 42.4012 32.4025 42.1916C32.8134 41.982 33.1242 41.6178 33.2665 41.1791C33.6935 39.8629 34.6258 38.7702 35.8584 38.1414C37.0911 37.5126 38.523 37.3992 39.8392 37.8262C41.1554 38.2531 42.2481 39.1855 42.8769 40.4181C43.5057 41.6507 43.6191 43.0826 43.1921 44.3988Z" fill="#FF3333"/>
</g>
<defs>
<clipPath id="clip0">
<rect width="80" height="80" fill="white" transform="translate(24.6846) rotate(17.9726)"/>
</clipPath>
</defs>
</svg>
