<svg width="98" height="64" viewBox="0 0 98 64" fill="none" xmlns="http://www.w3.org/2000/svg">
<g clip-path="url(#clip0)">
<path d="M80.8663 14.0293C80.9411 14.0425 81.0153 14.059 81.0893 14.077L83.8826 2.80337C83.5544 2.72287 83.2222 2.65165 82.8845 2.5921C82.5468 2.53255 82.2092 2.48567 81.8743 2.44925L80.6435 13.9984C80.7165 14.0063 80.7911 14.016 80.8663 14.0293Z" fill="#1D1D1D"/>
<path d="M79.9341 13.9969L78.681 2.44268C78.0043 2.51377 77.3333 2.63094 76.6729 2.79338L79.4889 14.0749C79.6353 14.0389 79.7841 14.0128 79.9341 13.9969Z" fill="#1D1D1D"/>
<path d="M78.8241 14.3154L73.6754 3.87914C73.0649 4.17684 72.4753 4.51523 71.9108 4.892L78.4327 14.5405C78.558 14.4569 78.6887 14.3817 78.8241 14.3154Z" fill="#1D1D1D"/>
<path d="M77.8891 14.9917L69.4652 6.92921C68.9937 7.41624 68.5559 7.93463 68.1551 8.48081L77.5985 15.3362C77.6874 15.2149 77.7845 15.0998 77.8891 14.9917Z" fill="#1D1D1D"/>
<path d="M77.2449 15.9463L66.5614 11.2297C66.2869 11.8485 66.0551 12.4854 65.8675 13.1357L77.091 16.3689C77.1326 16.2247 77.184 16.0835 77.2449 15.9463Z" fill="#1D1D1D"/>
<path d="M76.9688 17.0627L65.3165 16.2608C65.2704 16.9361 65.2705 17.6138 65.3167 18.2892L76.9691 17.511C76.9588 17.3618 76.9586 17.212 76.9688 17.0627Z" fill="#1D1D1D"/>
<path d="M77.0922 18.2069L65.8734 21.4205C66.0632 22.0708 66.2973 22.7076 66.5738 23.3266L77.2472 18.6315C77.186 18.4935 77.1342 18.3517 77.0922 18.2069Z" fill="#1D1D1D"/>
<path d="M77.6032 19.2397L68.1746 26.0758C68.5762 26.6229 69.0145 27.1425 69.4864 27.6311L77.8947 19.5853C77.7899 19.4767 77.6925 19.3612 77.6032 19.2397Z" fill="#1D1D1D"/>
<path d="M78.4366 20.039L71.932 29.677C72.497 30.0557 73.0874 30.3953 73.699 30.6934L78.8287 20.2646C78.693 20.1984 78.562 20.123 78.4366 20.039Z" fill="#1D1D1D"/>
<path d="M79.7161 20.5527C79.6413 20.5395 79.5671 20.523 79.4932 20.5049L76.6998 31.7786C77.0276 31.859 77.3602 31.9303 77.6979 31.9899C78.0356 32.0494 78.3732 32.0963 78.7081 32.1327L79.939 20.5835C79.8656 20.5756 79.7909 20.5659 79.7161 20.5527Z" fill="#1D1D1D"/>
<path d="M80.649 20.5853L81.9025 32.1396C82.5792 32.0686 83.2502 31.9514 83.9106 31.7889L81.0947 20.5075C80.9481 20.5435 80.7992 20.5695 80.649 20.5853Z" fill="#1D1D1D"/>
<path d="M81.7593 20.2667L86.908 30.703C87.5185 30.4053 88.108 30.0669 88.6726 29.6901L82.1507 20.0416C82.0253 20.1251 81.8946 20.2003 81.7593 20.2667Z" fill="#1D1D1D"/>
<path d="M82.6936 19.5903L91.1174 27.6528C91.589 27.1658 92.0267 26.6474 92.4275 26.1012L82.9841 19.2458C82.8952 19.367 82.7981 19.4821 82.6936 19.5903Z" fill="#1D1D1D"/>
<path d="M83.4916 18.2128C83.45 18.357 83.3986 18.4982 83.3376 18.6354L94.0212 23.3521C94.2957 22.7332 94.5275 22.0964 94.7151 21.446L83.4916 18.2128Z" fill="#1D1D1D"/>
<path d="M83.6141 17.519L95.2663 18.3209C95.3125 17.6456 95.3124 16.9679 95.2661 16.2925L83.6137 17.0707C83.6241 17.2199 83.6242 17.3697 83.6141 17.519Z" fill="#1D1D1D"/>
<path d="M83.4902 16.3751L94.709 13.1616C94.5192 12.5112 94.2851 11.8744 94.0086 11.2555L83.3352 15.9506C83.3964 16.0885 83.4482 16.2303 83.4902 16.3751Z" fill="#1D1D1D"/>
<path d="M82.9797 15.3424L92.4083 8.50635C92.0066 7.95921 91.5684 7.43959 91.0965 6.95103L82.6889 14.997C82.7934 15.1056 82.8905 15.221 82.9797 15.3424Z" fill="#1D1D1D"/>
<path d="M82.146 14.5433L88.6506 4.9052C88.0855 4.5268 87.4951 4.18723 86.8836 3.88887L81.7543 14.3177C81.8898 14.384 82.0207 14.4593 82.146 14.5433Z" fill="#1D1D1D"/>
</g>
<g clip-path="url(#clip1)">
<path d="M11.8494 50.3044C11.899 50.3132 11.9482 50.3241 11.9973 50.3361L13.8499 42.8591C13.6322 42.8057 13.4119 42.7585 13.188 42.719C12.964 42.6795 12.7401 42.6484 12.518 42.6243L11.7016 50.2839C11.7501 50.2892 11.7996 50.2956 11.8494 50.3044Z" fill="#4D9F30"/>
<path d="M11.2314 50.2832L10.4003 42.6201C9.95148 42.6673 9.5065 42.745 9.0685 42.8527L10.9361 50.3349C11.0332 50.311 11.1319 50.2938 11.2314 50.2832Z" fill="#4D9F30"/>
<path d="M10.495 50.4941L7.08023 43.5725C6.67532 43.7699 6.28432 43.9943 5.90989 44.2442L10.2354 50.6434C10.3185 50.5879 10.4052 50.538 10.495 50.4941Z" fill="#4D9F30"/>
<path d="M9.87474 50.9428L4.28782 45.5956C3.97506 45.9186 3.68475 46.2624 3.41891 46.6246L9.68203 51.1713C9.74095 51.0908 9.80534 51.0145 9.87474 50.9428Z" fill="#4D9F30"/>
<path d="M9.4476 51.576L2.36201 48.4478C2.17997 48.8583 2.02621 49.2806 1.90178 49.7119L9.3455 51.8563C9.37306 51.7606 9.40717 51.667 9.4476 51.576Z" fill="#4D9F30"/>
<path d="M9.26419 52.3166L1.53614 51.7848C1.50555 52.2326 1.50558 52.6821 1.53626 53.1301L9.26444 52.6139C9.25756 52.5149 9.25748 52.4156 9.26419 52.3166Z" fill="#4D9F30"/>
<path d="M9.34641 53.0753L1.90579 55.2067C2.0317 55.638 2.18691 56.0603 2.37034 56.4708L9.44919 53.3569C9.40861 53.2655 9.37427 53.1714 9.34641 53.0753Z" fill="#4D9F30"/>
<path d="M9.68539 53.7603L3.43211 58.2941C3.69849 58.657 3.98916 59.0016 4.30213 59.3257L9.87874 53.9894C9.80923 53.9174 9.74463 53.8409 9.68539 53.7603Z" fill="#4D9F30"/>
<path d="M10.2383 54.2901L5.92425 60.6823C6.29893 60.9334 6.6905 61.1586 7.09617 61.3563L10.4983 54.4397C10.4083 54.3958 10.3214 54.3458 10.2383 54.2901Z" fill="#4D9F30"/>
<path d="M11.0869 54.6313C11.0373 54.6226 10.9881 54.6116 10.939 54.5997L9.0864 62.0766C9.30384 62.13 9.5244 62.1773 9.74838 62.2168C9.97235 62.2562 10.1963 62.2873 10.4184 62.3115L11.2347 54.6518C11.186 54.6465 11.1365 54.6401 11.0869 54.6313Z" fill="#4D9F30"/>
<path d="M11.7054 54.6529L12.5368 62.316C12.9856 62.2689 13.4305 62.1912 13.8685 62.0834L12.001 54.6012C11.9037 54.6251 11.805 54.6424 11.7054 54.6529Z" fill="#4D9F30"/>
<path d="M12.4417 54.4416L15.8565 61.3632C16.2614 61.1658 16.6524 60.9414 17.0268 60.6915L12.7013 54.2923C12.6182 54.3477 12.5315 54.3976 12.4417 54.4416Z" fill="#4D9F30"/>
<path d="M13.0616 53.9928L18.6485 59.34C18.9612 59.017 19.2515 58.6732 19.5174 58.311L13.2543 53.7643C13.1953 53.8447 13.1309 53.921 13.0616 53.9928Z" fill="#4D9F30"/>
<path d="M13.5906 53.0793C13.5631 53.175 13.529 53.2686 13.4885 53.3596L20.5741 56.4878C20.7562 56.0773 20.9099 55.655 21.0344 55.2237L13.5906 53.0793Z" fill="#4D9F30"/>
<path d="M13.6716 52.619L21.3997 53.1508C21.4303 52.703 21.4303 52.2535 21.3996 51.8055L13.6714 52.3217C13.6783 52.4207 13.6783 52.52 13.6716 52.619Z" fill="#4D9F30"/>
<path d="M13.5897 51.8603L21.0303 49.729C20.9044 49.2977 20.7492 48.8753 20.5658 48.4648L13.4869 51.5787C13.5275 51.6702 13.5619 51.7643 13.5897 51.8603Z" fill="#4D9F30"/>
<path d="M13.2508 51.1754L19.5041 46.6416C19.2377 46.2787 18.9471 45.9341 18.6341 45.61L13.058 50.9463C13.1273 51.0184 13.1917 51.0949 13.2508 51.1754Z" fill="#4D9F30"/>
<path d="M12.698 50.6455L17.012 44.2533C16.6373 44.0023 16.2457 43.7771 15.8401 43.5793L12.4382 50.4959C12.5281 50.5399 12.6149 50.5898 12.698 50.6455Z" fill="#4D9F30"/>
</g>
<defs>
<clipPath id="clip0">
<rect width="29.8522" height="29.8522" fill="white" transform="translate(68.1836) rotate(10)"/>
</clipPath>
<clipPath id="clip1">
<rect width="19.7987" height="19.7987" fill="white" transform="translate(3.43799 41) rotate(10)"/>
</clipPath>
</defs>
</svg>
