<svg width="80" height="71" viewBox="0 0 80 71" fill="none" xmlns="http://www.w3.org/2000/svg">
<g clip-path="url(#clip0)">
<path d="M40.2572 71.0083C39.2833 71.0103 38.3467 70.6367 37.6447 69.9662C37.5923 69.9183 31.5049 64.0702 6.91635 39.6484L6.74428 39.4775C6.49248 39.2295 6.36867 39.0857 6.24487 38.9419C4.13118 36.7406 2.47473 34.1474 1.37009 31.3102C0.265454 28.4731 -0.265738 25.4477 -0.193156 22.4066C-0.0465706 16.265 2.55042 10.4328 7.02651 6.19296C11.5026 1.95313 17.4911 -0.346994 23.6747 -0.201403C29.8582 -0.0558111 35.7303 2.52357 39.9991 6.9693C42.1637 4.76204 44.7501 3.00601 47.6066 1.80407C50.4632 0.60213 53.5326 -0.0215499 56.6349 -0.0304354C59.7372 -0.039321 62.8101 0.566766 65.6736 1.75232C68.5371 2.93788 71.1336 4.67906 73.311 6.87388C75.4884 9.06871 77.2029 11.673 78.3542 14.5343C79.5054 17.3956 80.0702 20.4562 80.0154 23.537C79.9607 26.6178 79.2875 29.6568 78.0353 32.4759C76.7831 35.2951 74.9771 37.8377 72.723 39.9548C72.6559 40.034 72.5929 40.0965 72.5468 40.1424C47.7588 64.7663 43.0585 69.7578 43.0165 69.8058C42.6747 70.171 42.2633 70.4653 41.8063 70.6717C41.3493 70.8781 40.8555 70.9925 40.3537 71.0083H40.2572ZM23.3339 2.48842C19.2758 2.48528 15.3054 3.66059 11.9111 5.86971C8.51683 8.07883 5.84688 11.2254 4.22983 14.9221C2.61277 18.6189 2.11916 22.7045 2.80973 26.6763C3.5003 30.6481 5.34493 34.3327 8.11661 37.2767C8.24041 37.4184 8.32645 37.5205 8.5132 37.6935L8.68736 37.8686C33.2697 62.2841 39.3234 68.0884 39.3801 68.151C39.6123 68.3754 39.9227 68.5023 40.2467 68.5053H40.3013C40.6363 68.493 40.953 68.3499 41.1826 68.1072C41.2203 68.0676 45.9605 63.0344 70.7695 38.3896L70.9499 38.1979C73.0239 36.2753 74.6759 33.9482 75.8025 31.3621C76.929 28.7761 77.5058 25.9869 77.4968 23.1692C77.4978 18.9538 76.2014 14.8387 73.7815 11.3756C71.3616 7.91249 67.9338 5.26672 63.9574 3.79289C59.9811 2.31906 55.6461 2.08759 51.5336 3.12949C47.421 4.1714 43.7273 6.4369 40.9476 9.62239L39.9991 10.7166L39.0506 9.62239C37.1025 7.37956 34.6896 5.58103 31.9771 4.34978C29.2646 3.11853 26.3163 2.48361 23.3339 2.48842Z" fill="#1D1D1D"/>
</g>
<defs>
<clipPath id="clip0">
<rect width="80" height="71" fill="white"/>
</clipPath>
</defs>
</svg>
