<svg width="80" height="80" viewBox="0 0 80 80" fill="none" xmlns="http://www.w3.org/2000/svg">
<g clip-path="url(#clip0)">
<path d="M40.0015 79.9997C32.0898 80.0003 24.3555 77.6548 17.7769 73.2598C11.1982 68.8647 6.0706 62.6176 3.04247 55.3083C0.0143454 47.999 -0.77828 39.9559 0.764826 32.1961C2.30793 24.4364 6.11746 17.3085 11.7117 11.7138C17.3059 6.11915 24.4335 2.30904 32.1931 0.765305C39.9527 -0.778429 47.9959 0.0135457 55.3054 3.04108C62.615 6.06861 68.8625 11.1957 73.2581 17.774C77.6537 24.3523 79.9998 32.0864 79.9998 39.9981C79.9998 50.6066 75.7858 60.7807 68.2848 68.2823C60.7837 75.784 50.61 79.9988 40.0015 79.9997ZM40.0015 4.48322C32.9773 4.48322 26.1109 6.56612 20.2705 10.4685C14.4301 14.371 9.87805 19.9176 7.19002 26.4071C4.50198 32.8966 3.79867 40.0375 5.16902 46.9267C6.53937 53.8159 9.92183 60.144 14.8887 65.1109C19.8555 70.0777 26.1836 73.4602 33.0729 74.8305C39.9621 76.2009 47.1029 75.4976 53.5924 72.8095C60.0819 70.1215 65.6286 65.5695 69.531 59.7291C73.4334 53.8887 75.5163 47.0222 75.5163 39.9981C75.5163 30.5789 71.7746 21.5456 65.1143 14.8853C58.4539 8.22495 49.4206 4.48322 40.0015 4.48322Z" fill="#1D1D1D"/>
<path d="M40.0018 42.2418C37.5868 42.166 35.2475 41.3805 33.2761 39.9835C31.3047 38.5865 29.7884 36.6397 28.9165 34.3863C28.0447 32.1328 27.8558 29.6724 28.3736 27.3123C28.8914 24.9522 30.0929 22.7969 31.828 21.1154C33.5632 19.4339 35.7552 18.3007 38.1304 17.8573C40.5056 17.4139 42.9588 17.6798 45.1838 18.622C47.4087 19.5642 49.3069 21.1409 50.6414 23.1552C51.9758 25.1695 52.6874 27.5323 52.6873 29.9485C52.6988 30.2501 52.6493 30.5509 52.5418 30.8329C52.4343 31.1149 52.271 31.3723 52.0617 31.5897C51.8524 31.8071 51.6014 31.98 51.3237 32.0982C51.046 32.2163 50.7473 32.2772 50.4456 32.2772C50.1438 32.2772 49.8451 32.2163 49.5674 32.0982C49.2897 31.98 49.0387 31.8071 48.8294 31.5897C48.6201 31.3723 48.4568 31.1149 48.3493 30.8329C48.2418 30.5509 48.1923 30.2501 48.2038 29.9485C48.2839 28.3264 47.8812 26.717 47.0466 25.3237C46.212 23.9305 44.983 22.816 43.515 22.1212C42.047 21.4264 40.406 21.1826 38.7994 21.4204C37.1928 21.6583 35.6928 22.3672 34.4891 23.4576C33.2855 24.5479 32.4321 25.9707 32.0371 27.546C31.642 29.1213 31.7229 30.7784 32.2696 32.3077C32.8163 33.837 33.8042 35.1699 35.1084 36.1378C36.4126 37.1057 37.9745 37.6651 39.5966 37.7453C39.7327 37.7453 39.8657 37.7453 40.0018 37.7453C40.5968 37.7453 41.1674 37.9816 41.5881 38.4023C42.0088 38.823 42.2452 39.3937 42.2452 39.9886C42.2452 40.5836 42.0088 41.1542 41.5881 41.575C41.1674 41.9957 40.5968 42.232 40.0018 42.232V42.2418Z" fill="#1D1D1D"/>
<path d="M40.0016 62.3415C36.6902 62.39 33.4948 61.1229 31.1166 58.8182C28.7383 56.5135 27.3715 53.3595 27.3161 50.0482C27.3046 49.7467 27.3541 49.4459 27.4616 49.1639C27.5691 48.8819 27.7324 48.6245 27.9417 48.4071C28.151 48.1897 28.402 48.0167 28.6797 47.8986C28.9574 47.7805 29.2561 47.7196 29.5578 47.7196C29.8596 47.7196 30.1583 47.7805 30.436 47.8986C30.7137 48.0167 30.9647 48.1897 31.174 48.4071C31.3833 48.6245 31.5466 48.8819 31.6541 49.1639C31.7616 49.4459 31.8111 49.7467 31.7996 50.0482C31.7163 51.6707 32.1162 53.2814 32.9486 54.6766C33.781 56.0717 35.0085 57.1886 36.4758 57.886C37.9431 58.5833 39.5844 58.8297 41.1918 58.594C42.7992 58.3583 44.3006 57.6511 45.506 56.5619C46.7114 55.4727 47.5666 54.0504 47.9634 52.475C48.3603 50.8997 48.2809 49.2419 47.7354 47.7117C47.1898 46.1814 46.2026 44.8474 44.8987 43.8783C43.5947 42.9092 42.0326 42.3487 40.41 42.2677C40.2739 42.2677 40.1377 42.2677 40.0016 42.2677C39.4066 42.2677 38.836 42.0314 38.4153 41.6106C37.9945 41.1899 37.7582 40.6193 37.7582 40.0243C37.7582 39.4293 37.9945 38.8587 38.4153 38.438C38.836 38.0173 39.4066 37.7809 40.0016 37.7809C41.6308 37.7026 43.2594 37.9491 44.7925 38.5059C46.3256 39.0628 47.7327 39.919 48.9319 41.0247C50.1311 42.1303 51.0984 43.4634 51.7777 44.9464C52.4569 46.4293 52.8345 48.0326 52.8885 49.6628C52.9424 51.293 52.6716 52.9177 52.0919 54.4424C51.5122 55.967 50.6351 57.3611 49.5116 58.5436C48.3881 59.7262 47.0407 60.6735 45.5478 61.3305C44.0548 61.9875 42.4461 62.3411 40.8153 62.3706C40.543 62.3706 40.2739 62.3706 40.0016 62.3706V62.3415Z" fill="#1D1D1D"/>
<path d="M40.0017 66.1118C39.4067 66.1118 38.8361 65.8754 38.4154 65.4547C37.9947 65.034 37.7583 64.4634 37.7583 63.8684V16.1187C37.7583 15.5237 37.9947 14.9531 38.4154 14.5323C38.8361 14.1116 39.4067 13.8753 40.0017 13.8753C40.5967 13.8753 41.1673 14.1116 41.588 14.5323C42.0087 14.9531 42.2451 15.5237 42.2451 16.1187V63.8684C42.2451 64.4634 42.0087 65.034 41.588 65.4547C41.1673 65.8754 40.5967 66.1118 40.0017 66.1118Z" fill="#1D1D1D"/>
</g>
<defs>
<clipPath id="clip0">
<rect width="80" height="80" fill="white"/>
</clipPath>
</defs>
</svg>
