<svg width="80" height="80" viewBox="0 0 80 80" fill="none" xmlns="http://www.w3.org/2000/svg">
<g clip-path="url(#clip0)">
<path d="M69.6769 24.5162H69.5382C68.5435 22.2267 67.2844 20.0615 65.7865 18.0646H65.8058C66.148 18.0646 66.4763 17.9287 66.7182 17.6867C66.9602 17.4447 67.0962 17.1165 67.0962 16.7743V1.29041C67.0961 1.10093 67.0543 0.913792 66.9737 0.742296C66.8931 0.570801 66.7757 0.419157 66.6299 0.29814C66.4841 0.177124 66.3134 0.089705 66.13 0.0420956C65.9466 -0.00551385 65.755 -0.0121454 65.5687 0.0226723L45.6441 3.75816C44.9229 2.98026 44.0487 2.35967 43.0765 1.93528C42.1043 1.51089 41.0549 1.29183 39.994 1.29183C38.9332 1.29183 37.8838 1.51089 36.9115 1.93528C35.9393 2.35967 35.0652 2.98026 34.3439 3.75816L14.4306 0.0242852C14.2444 -0.0107747 14.0527 -0.00437996 13.8692 0.0430148C13.6857 0.0904096 13.5149 0.177641 13.3689 0.298508C13.2229 0.419376 13.1054 0.570912 13.0246 0.742346C12.9438 0.91378 12.9018 1.1009 12.9015 1.29041V16.7743C12.9015 17.1165 13.0375 17.4447 13.2795 17.6867C13.5215 17.9287 13.8497 18.0646 14.1919 18.0646C12.7039 20.0634 11.4535 22.2285 10.466 24.5162H10.3208C7.58398 24.5192 4.96007 25.6077 3.02482 27.5429C1.08957 29.4781 0.00103541 32.102 -0.00195312 34.8388L-0.00195312 40.0001C-0.00195312 45.484 5.27073 49.6662 10.4063 50.2469C12.3647 54.7364 15.3156 58.7235 19.0371 61.9082L6.71754 77.9243L8.76274 79.4969L21.0598 63.5114C21.6254 63.9232 22.2039 64.3157 22.7953 64.6888L13.1499 77.9517C13.0103 78.1441 12.9264 78.3713 12.9078 78.6083C12.8891 78.8453 12.9362 79.0829 13.044 79.2948C13.1518 79.5067 13.316 79.6847 13.5186 79.8091C13.7211 79.9336 13.9541 79.9997 14.1919 80.0001H65.8058C66.0499 79.9999 66.2889 79.9305 66.4951 79.7999C66.7013 79.6693 66.8663 79.483 66.9708 79.2624C67.0753 79.0419 67.1152 78.7962 67.0857 78.5539C67.0562 78.3116 66.9586 78.0827 66.8042 77.8936L56.404 65.1791C57.0062 64.8243 57.5976 64.4479 58.1783 64.0501L71.2817 79.534L73.2511 77.8678L60.2412 62.5114C64.2996 59.2367 67.5086 55.0319 69.5962 50.2533C74.727 49.6662 79.9997 45.484 79.9997 40.0001V34.8388C79.9967 32.102 78.9081 29.4781 76.9729 27.5429C75.0376 25.6077 72.4137 24.5192 69.6769 24.5162ZM64.5155 2.84687V15.2211L62.7913 14.8985L47.1603 11.9678C47.9344 10.0885 47.9344 7.97941 47.1603 6.10009L64.5155 2.84687ZM39.9989 3.87106C41.0197 3.87106 42.0176 4.17376 42.8664 4.74089C43.7152 5.30802 44.3767 6.11411 44.7674 7.05721C45.158 8.00031 45.2602 9.03807 45.0611 10.0393C44.8619 11.0405 44.3703 11.9601 43.6485 12.6819C42.9267 13.4038 42.007 13.8953 41.0058 14.0945C40.0046 14.2936 38.9668 14.1914 38.0237 13.8008C37.0806 13.4101 36.2745 12.7486 35.7073 11.8998C35.1402 11.051 34.8375 10.0532 34.8375 9.03235C34.8375 7.66349 35.3812 6.3507 36.3492 5.38277C37.3171 4.41484 38.63 3.87106 39.9989 3.87106ZM15.4822 2.84687L32.8374 6.10009C32.061 7.97896 32.061 10.089 32.8374 11.9678L17.2081 14.8985L15.4822 15.2211V2.84687ZM2.57874 40.0001V34.8388C2.57975 32.937 3.28072 31.1022 4.54797 29.6841C5.81523 28.2661 7.56011 27.364 9.44985 27.1501C7.20948 33.7173 7.16984 40.8357 9.33695 47.4275C5.85462 46.4969 2.57874 43.5807 2.57874 40.0001ZM63.0832 77.4194H16.7274L25.0421 65.9856C29.5101 68.3333 34.4678 69.5968 39.5145 69.6738C44.5611 69.7509 49.5551 68.6394 54.0927 66.4291L63.0832 77.4194ZM39.9989 67.0969C23.6356 67.0969 10.3208 53.7856 10.3208 37.4194C10.3164 30.1194 13.0066 23.0746 17.8758 17.6356C17.9645 17.5372 18.0549 17.4436 18.1436 17.3469L34.3536 14.3082C35.0746 15.0865 35.9486 15.7075 36.9209 16.1321C37.8932 16.5568 38.9427 16.776 40.0037 16.776C41.0647 16.776 42.1142 16.5568 43.0865 16.1321C44.0588 15.7075 44.9328 15.0865 45.6538 14.3082L61.8461 17.3436C66.889 22.8122 69.6851 29.9807 69.6769 37.4194C69.6769 53.7856 56.3637 67.0969 39.9989 67.0969ZM77.419 40.0001C77.419 43.5807 74.1447 46.4969 70.6608 47.4275C72.8268 40.8357 72.7883 33.718 70.5511 27.1501C72.4394 27.3668 74.1823 28.2697 75.4485 29.6873C76.7147 31.1048 77.4159 32.9381 77.419 34.8388V40.0001Z" fill="#1D1D1D"/>
<path d="M42.5797 49.0323H37.4183C35.0237 49.0293 32.728 48.0767 31.0347 46.3835C29.3415 44.6902 28.3889 42.3946 28.3859 40H25.8052C25.8082 43.079 27.0326 46.0311 29.2099 48.2083C31.3871 50.3854 34.3392 51.6099 37.4183 51.6129H42.5797C45.6587 51.6095 48.6105 50.3849 50.7877 48.2078C52.9648 46.0307 54.1894 43.0789 54.1929 40H51.6122C51.6092 42.3946 50.6566 44.6902 48.9633 46.3835C47.2701 48.0767 44.9744 49.0293 42.5797 49.0323Z" fill="#1D1D1D"/>
<path d="M30.9666 27.0968C31.651 27.0968 32.3074 27.3686 32.7914 27.8526C33.2754 28.3366 33.5473 28.993 33.5473 29.6774H36.128C36.128 28.3085 35.5842 26.9958 34.6162 26.0278C33.6483 25.0599 32.3355 24.5161 30.9666 24.5161C29.5977 24.5161 28.2849 25.0599 27.3169 26.0278C26.349 26.9958 25.8052 28.3085 25.8052 29.6774H28.3859C28.3859 28.993 28.6578 28.3366 29.1417 27.8526C29.6257 27.3686 30.2821 27.0968 30.9666 27.0968Z" fill="#1D1D1D"/>
<path d="M50.322 24.5161C48.9532 24.5161 47.6403 25.0599 46.6724 26.0278C45.7044 26.9958 45.1606 28.3085 45.1606 29.6774H47.7413C47.7413 28.993 48.0132 28.3366 48.4972 27.8526C48.9812 27.3686 49.6376 27.0968 50.322 27.0968C51.0065 27.0968 51.6629 27.3686 52.1469 27.8526C52.6308 28.3366 52.9027 28.993 52.9027 29.6774H55.4834C55.4834 28.3085 54.9396 26.9958 53.9717 26.0278C53.0037 25.0599 51.6909 24.5161 50.322 24.5161Z" fill="#1D1D1D"/>
</g>
<defs>
<clipPath id="clip0">
<rect width="80" height="80" fill="white"/>
</clipPath>
</defs>
</svg>
