<svg width="117" height="55" viewBox="0 0 117 55" fill="none" xmlns="http://www.w3.org/2000/svg">
<g clip-path="url(#clip0)">
<path d="M116.125 21.2105L110.095 7.82874C109.032 5.49795 107.329 3.52221 105.187 2.13495C103.045 0.747688 100.554 0.00686389 98.007 0H11.5635C8.49766 0.00324924 5.55831 1.23129 3.39043 3.41466C1.22256 5.59803 0.00322618 8.55839 0 11.6461L0 40.7517C0 42.4445 0.667699 44.068 1.85621 45.265C3.04472 46.462 4.65669 47.1344 6.3375 47.1344H15.795C16.2426 49.3543 17.4383 51.35 19.1797 52.7835C20.9211 54.2169 23.101 55 25.35 55C27.599 55 29.7789 54.2169 31.5203 52.7835C33.2617 51.35 34.4574 49.3543 34.905 47.1344H82.095C82.5425 49.3543 83.7383 51.35 85.4797 52.7835C87.2211 54.2169 89.4009 55 91.65 55C93.899 55 96.0789 54.2169 97.8203 52.7835C99.5617 51.35 100.757 49.3543 101.205 47.1344H111.579C113.016 47.1331 114.394 46.5575 115.411 45.5339C116.427 44.5103 116.999 43.1223 117 41.6747V25.2857C117.002 23.8798 116.703 22.49 116.125 21.2105ZM111.896 21.3382L93.6 19.7965V11.5381L106.748 9.8835L111.896 21.3382ZM25.35 51.0623C24.193 51.0623 23.0619 50.7168 22.0999 50.0694C21.1379 49.422 20.3881 48.5018 19.9453 47.4252C19.5025 46.3486 19.3867 45.164 19.6124 44.0211C19.8381 42.8782 20.3953 41.8284 21.2134 41.0044C22.0316 40.1804 23.0739 39.6192 24.2087 39.3919C25.3435 39.1646 26.5197 39.2813 27.5887 39.7272C28.6576 40.1731 29.5713 40.9283 30.2141 41.8972C30.8569 42.8661 31.2 44.0052 31.2 45.1705C31.2 46.7331 30.5837 48.2317 29.4866 49.3366C28.3895 50.4416 26.9015 51.0623 25.35 51.0623ZM91.65 51.0623C90.493 51.0623 89.3619 50.7168 88.3999 50.0694C87.4379 49.422 86.6881 48.5018 86.2453 47.4252C85.8025 46.3486 85.6867 45.164 85.9124 44.0211C86.1381 42.8782 86.6953 41.8284 87.5134 41.0044C88.3315 40.1804 89.3739 39.6192 90.5087 39.3919C91.6435 39.1646 92.8197 39.2813 93.8887 39.7272C94.9576 40.1731 95.8713 40.9283 96.5141 41.8972C97.1569 42.8661 97.5 44.0052 97.5 45.1705C97.5 46.7331 96.8836 48.2317 95.7866 49.3366C94.6895 50.4416 93.2015 51.0623 91.65 51.0623ZM111.579 43.2066H101.205C100.757 40.9868 99.5617 38.991 97.8203 37.5576C96.0789 36.1241 93.899 35.341 91.65 35.341C89.4009 35.341 87.2211 36.1241 85.4797 37.5576C83.7383 38.991 82.5425 40.9868 82.095 43.2066H34.905C34.4574 40.9868 33.2617 38.991 31.5203 37.5576C29.7789 36.1241 27.599 35.341 25.35 35.341C23.101 35.341 20.9211 36.1241 19.1797 37.5576C17.4383 38.991 16.2426 40.9868 15.795 43.2066H6.3375C5.69103 43.2066 5.07105 42.9479 4.61393 42.4875C4.15681 42.0272 3.9 41.4027 3.9 40.7517V11.6461C3.90194 9.59972 4.70996 7.63768 6.14672 6.19065C7.58349 4.74362 9.5316 3.92982 11.5635 3.92787H98.007C100.274 3.93296 102.464 4.76294 104.171 6.26495L91.5281 7.85574H15.6C15.0828 7.85574 14.5868 8.06265 14.2211 8.43096C13.8554 8.79927 13.65 9.29881 13.65 9.81968V21.6033C13.65 22.1242 13.8554 22.6237 14.2211 22.992C14.5868 23.3603 15.0828 23.5672 15.6 23.5672H91.5671L113.1 25.374V41.6747C113.099 42.0808 112.939 42.47 112.654 42.7572C112.369 43.0443 111.982 43.2059 111.579 43.2066ZM17.55 19.6394V11.7836H31.2V19.6394H17.55ZM35.1 11.7836H50.7V19.6394H35.1V11.7836ZM54.6 11.7836H68.25V19.6394H54.6V11.7836ZM72.15 11.7836H89.7V19.6394H72.15V11.7836Z" fill="#747474"/>
</g>
<defs>
<clipPath id="clip0">
<rect width="117" height="55" fill="white"/>
</clipPath>
</defs>
</svg>
