<svg width="80" height="75" viewBox="0 0 80 75" fill="none" xmlns="http://www.w3.org/2000/svg">
<g clip-path="url(#clip0)">
<path d="M65.9804 75.0001H14.0179C13.7087 74.9998 13.4026 74.9396 13.1171 74.8227C12.8315 74.7059 12.5722 74.5347 12.3538 74.319C12.1354 74.1033 11.9623 73.8473 11.8444 73.5657C11.7264 73.284 11.6659 72.9823 11.6664 72.6776V31.1715C11.6578 30.8617 11.7123 30.5534 11.8267 30.2648C11.941 29.9762 12.1129 29.713 12.3322 29.4909C12.5515 29.2689 12.8137 29.0923 13.1034 28.9718C13.3931 28.8513 13.7043 28.7892 14.0188 28.7892C14.3332 28.7892 14.6445 28.8513 14.9341 28.9718C15.2238 29.0923 15.486 29.2689 15.7053 29.4909C15.9246 29.713 16.0965 29.9762 16.2109 30.2648C16.3252 30.5534 16.3797 30.8617 16.3712 31.1715V70.3689H63.6271V31.1715C63.6271 30.5565 63.8751 29.9666 64.3164 29.5317C64.7577 29.0968 65.3563 28.8525 65.9804 28.8525C66.6045 28.8525 67.2031 29.0968 67.6444 29.5317C68.0857 29.9666 68.3336 30.5565 68.3336 31.1715V72.6776C68.3341 72.9824 68.2736 73.2843 68.1555 73.5661C68.0375 73.8478 67.8642 74.1039 67.6456 74.3196C67.4271 74.5353 67.1675 74.7064 66.8818 74.8232C66.596 74.94 66.2897 75.0001 65.9804 75.0001Z" fill="#747474"/>
<path d="M77.6447 31.1714C77.1543 31.1714 76.6763 31.0198 76.278 30.738L40.0067 5.16992L3.73547 30.738C3.22799 31.0975 2.59638 31.2436 1.97959 31.1442C1.36279 31.0448 0.811331 30.708 0.446524 30.2079C0.081718 29.7078 -0.0665528 29.0854 0.0343298 28.4776C0.135212 27.8697 0.476984 27.3263 0.98446 26.9668L38.6312 0.433428C39.0301 0.151198 39.5087 -0.000610352 39.9997 -0.000610352C40.4907 -0.000610352 40.9694 0.151198 41.3682 0.433428L79.015 26.9668C79.4202 27.2527 79.7229 27.658 79.8794 28.1243C80.0358 28.5906 80.038 29.0939 79.8856 29.5615C79.7332 30.0291 79.4341 30.437 79.0314 30.7263C78.6287 31.0157 78.1431 31.1715 77.6447 31.1714Z" fill="#747474"/>
<path d="M50.3467 74.3921C50.0378 74.3921 49.7319 74.3321 49.4464 74.2156C49.161 74.099 48.9017 73.9282 48.6834 73.7128C48.465 73.4974 48.2918 73.2418 48.1737 72.9604C48.0557 72.6791 47.995 72.3776 47.9952 72.0731V43.7543H32.0044V71.6414C32.0044 72.2565 31.7564 72.8463 31.3151 73.2812C30.8738 73.7161 30.2752 73.9604 29.6511 73.9604C29.027 73.9604 28.4284 73.7161 27.9871 73.2812C27.5458 72.8463 27.2979 72.2565 27.2979 71.6414V41.437C27.2979 40.8219 27.5458 40.2321 27.9871 39.7972C28.4284 39.3622 29.027 39.1179 29.6511 39.1179H50.3467C50.9708 39.1179 51.5694 39.3622 52.0107 39.7972C52.4521 40.2321 52.7 40.8219 52.7 41.437V72.0731C52.7 72.3776 52.6391 72.6792 52.5209 72.9605C52.4026 73.2419 52.2292 73.4976 52.0107 73.7129C51.7922 73.9282 51.5328 74.0991 51.2473 74.2156C50.9618 74.3321 50.6558 74.3921 50.3467 74.3921Z" fill="#747474"/>
</g>
<defs>
<clipPath id="clip0">
<rect width="80" height="75" fill="white"/>
</clipPath>
</defs>
</svg>
