<svg width="80" height="80" viewBox="0 0 80 80" fill="none" xmlns="http://www.w3.org/2000/svg">
<g clip-path="url(#clip0)">
<path d="M56.6684 6.66475C55.3316 6.6854 54.0025 6.87334 52.7124 7.22417C49.9015 3.60358 45.3455 -0.0045166 38.3317 -0.0045166C33.0397 -0.0045166 29.1898 1.93626 26.4165 4.39583C21.7172 2.7896 16.5882 2.99146 12.0297 4.96205C7.47115 6.93264 3.80992 10.5307 1.75996 15.0545C-0.290006 19.5783 -0.581717 24.7036 0.941707 29.4309C2.46513 34.1581 5.69446 38.1484 9.99996 40.6237V51.6745C9.99932 51.8936 10.0421 52.1107 10.1257 52.3132C10.2094 52.5157 10.3323 52.6996 10.4874 52.8543L12.6405 55.0076L10.4874 57.1609C10.1752 57.4738 9.99978 57.8978 9.99978 58.3399C9.99978 58.782 10.1752 59.206 10.4874 59.5189L12.6405 61.6722L10.4874 63.8255C10.1753 64.1381 9.99991 64.5619 9.99991 65.0037C9.99991 65.4455 10.1753 65.8693 10.4874 66.1819L12.6405 68.3352L10.4874 70.4901C10.1753 70.8027 9.99991 71.2264 9.99991 71.6683C9.99991 72.1101 10.1753 72.5339 10.4874 72.8465L17.1528 79.5142C17.467 79.8248 17.8907 79.9993 18.3325 80.0002H21.6667C21.9184 79.996 22.1658 79.9346 22.3901 79.8205C22.4531 79.784 22.5132 79.7428 22.5698 79.697C22.7157 79.6034 22.8451 79.4862 22.9526 79.3501C22.9823 79.3142 23.0291 79.297 23.0526 79.2564L29.7195 69.2556C29.9024 68.9824 29.9998 68.6609 29.9992 68.3321V40.6237C31.2548 39.8942 32.4273 39.0302 33.4959 38.0469C33.4084 39.2532 33.3397 40.4643 33.3397 41.6644C33.3397 60.9659 43.808 76.6671 56.6731 76.6671C69.5383 76.6671 79.9972 60.969 79.9972 41.6675C79.9972 22.366 69.5289 6.66475 56.6684 6.66475ZM54.9982 16.6655C55.328 16.6655 55.6504 16.7634 55.9246 16.9466C56.1988 17.1299 56.4124 17.3904 56.5386 17.6952C56.6647 17.9999 56.6976 18.3352 56.6332 18.6587C56.5687 18.9822 56.4098 19.2793 56.1765 19.5124C55.9432 19.7455 55.646 19.9042 55.3225 19.9683C54.999 20.0325 54.6637 19.9992 54.3591 19.8728C54.0545 19.7464 53.7943 19.5324 53.6113 19.258C53.4283 18.9836 53.3308 18.6611 53.3311 18.3313C53.3309 18.1122 53.3738 17.8952 53.4575 17.6928C53.5412 17.4903 53.664 17.3063 53.8188 17.1513C53.9736 16.9963 54.1575 16.8734 54.3599 16.7895C54.5622 16.7056 54.7791 16.6624 54.9982 16.6624V16.6655ZM38.3317 3.33012C43.5596 3.33012 47.1094 5.75062 49.4515 8.42739C45.5689 10.3088 42.0784 13.6716 39.3254 18.2782C38.6444 15.6868 37.4511 13.2583 35.816 11.1359C34.1809 9.01345 32.1372 7.24024 29.8054 5.92095C31.9491 4.41145 34.7287 3.33012 38.3317 3.33012ZM19.9996 76.6702H19.0262L14.0264 71.6698L16.1794 69.5165C16.4917 69.2037 16.6671 68.7796 16.6671 68.3375C16.6671 67.8955 16.4917 67.4714 16.1794 67.1585L14.0264 65.0006L16.1794 62.8473C16.4916 62.5346 16.6669 62.1109 16.6669 61.669C16.6669 61.2272 16.4916 60.8035 16.1794 60.4908L14.0264 58.3422L16.1794 56.1889C16.4917 55.876 16.6671 55.452 16.6671 55.0099C16.6671 54.5679 16.4917 54.1438 16.1794 53.8309L13.3326 50.9838V42.1644C15.4724 42.9299 17.7271 43.3241 19.9996 43.3301V76.6702ZM26.6696 67.832L23.3323 72.8324V43.0301C24.4678 42.8392 25.5845 42.5496 26.6696 42.1644V67.832ZM19.9996 39.9986C17.7974 40.0199 15.6129 39.6046 13.5722 38.7765C11.5315 37.9484 9.67513 36.7241 8.11038 35.1742C6.54562 33.6244 5.30351 31.7797 4.45582 29.7469C3.60813 27.7141 3.17167 25.5334 3.17167 23.3309C3.17167 21.1284 3.60813 18.9477 4.45582 16.9149C5.30351 14.8821 6.54562 13.0374 8.11038 11.4876C9.67513 9.93772 11.5315 8.71338 13.5722 7.88531C15.6129 7.05724 17.7974 6.64187 19.9996 6.66319C21.2988 6.67491 22.5921 6.84013 23.8525 7.15542C23.0978 8.14063 22.4247 9.18585 21.8401 10.2807C20.293 9.84814 18.6413 9.99495 17.1947 10.6936C15.7481 11.3922 14.606 12.5946 13.9827 14.0753C13.3593 15.556 13.2975 17.2133 13.8088 18.7363C14.3201 20.2594 15.3693 21.5436 16.7599 22.348C18.1504 23.1525 19.7866 23.422 21.3616 23.106C22.9366 22.79 24.3423 21.9102 25.315 20.6316C26.2876 19.353 26.7605 17.7634 26.6449 16.161C26.5292 14.5585 25.8331 13.0533 24.6869 11.9277C25.3563 10.6367 26.1771 9.43022 27.1321 8.33363C32.7459 11.0182 36.663 16.7046 36.663 23.3348C36.6568 27.7527 34.8991 31.9878 31.7754 35.1116C28.6517 38.2354 24.4169 39.9928 19.9996 39.9986ZM21.2605 16.6171C21.63 16.7024 22.0177 16.6585 22.3588 16.4928C22.7 16.327 22.974 16.0494 23.1354 15.7061C23.25 16.0133 23.3164 16.3364 23.3323 16.664C23.3319 17.3235 23.1361 17.9681 22.7695 18.5163C22.4028 19.0645 21.8819 19.4917 21.2725 19.7438C20.6632 19.9959 19.9927 20.0616 19.346 19.9327C18.6993 19.8037 18.1053 19.4858 17.6392 19.0192C17.1732 18.5527 16.8559 17.9583 16.7275 17.3114C16.5992 16.6645 16.6655 15.9941 16.9182 15.3849C17.1708 14.7757 17.5984 14.2551 18.1469 13.8889C18.6954 13.5227 19.3401 13.3275 19.9996 13.3278C20.1463 13.3465 20.2914 13.3758 20.4339 13.4153C20.1793 14.1185 20.0527 14.5716 20.0496 14.5982C19.9963 14.8102 19.9853 15.0306 20.0174 15.2468C20.0494 15.4631 20.1238 15.6708 20.2363 15.8583C20.3488 16.0457 20.4972 16.209 20.6729 16.339C20.8487 16.4689 21.0483 16.5629 21.2605 16.6155V16.6171ZM56.6684 73.3403C45.6392 73.3403 36.6692 59.1329 36.6692 41.6722C36.6745 38.7899 36.9359 35.9138 37.4505 33.0778C38.9731 30.3526 39.8327 27.3072 39.9597 24.188C40.0305 24.1068 40.0923 24.0183 40.1441 23.9239C42.8799 17.5734 46.9095 13.1199 51.4358 11.1495C51.9589 12.0167 52.4184 12.9207 52.8108 13.8544C51.7557 14.3699 50.9158 15.2405 50.4381 16.3134C49.9605 17.3862 49.8757 18.593 50.1986 19.7222C50.5215 20.8513 51.2315 21.8307 52.2041 22.4888C53.1768 23.1469 54.3499 23.4416 55.518 23.3212C56.6861 23.2009 57.7746 22.6732 58.5926 21.8307C59.4107 20.9881 59.9061 19.8845 59.9921 18.7132C60.0781 17.542 59.7491 16.3778 59.0628 15.4248C58.3765 14.4719 57.3768 13.7909 56.2388 13.5012C55.7983 12.3618 55.2762 11.2557 54.6763 10.1916C55.3342 10.0738 56.0003 10.0085 56.6684 9.99626C67.6977 9.99626 76.6677 24.2036 76.6677 41.6659C76.6677 59.1282 67.6977 73.3325 56.6684 73.3325V73.3403Z" fill="#747474"/>
<path d="M61.7381 33.326C59.8786 33.3322 58.0814 33.9965 56.6648 35.2012C55.248 33.997 53.4509 33.3327 51.5916 33.326C47.0386 33.326 43.3325 37.317 43.3325 42.2174C43.3325 44.405 44.1278 46.5333 45.6387 48.3803C47.9823 51.2415 55.1274 59.1187 55.432 59.4515C55.5879 59.6238 55.7781 59.7615 55.9905 59.8557C56.2028 59.95 56.4325 59.9987 56.6648 59.9987C56.8971 59.9987 57.1268 59.95 57.3392 59.8557C57.5515 59.7615 57.7417 59.6238 57.8976 59.4515C58.2007 59.1187 65.3504 51.2368 67.6909 48.3803C69.2003 46.5333 69.9971 44.4035 69.9971 42.2174C69.9971 37.3139 66.291 33.326 61.7381 33.326ZM65.1067 46.2739C63.4005 48.3647 58.8679 53.4104 56.6695 55.8512C54.4696 53.4104 49.937 48.36 48.2323 46.2739C47.523 45.4067 46.6699 43.9972 46.6699 42.2205C46.6699 39.1562 48.8792 36.6638 51.5963 36.6638C53.0368 36.6638 54.3993 37.3732 55.3461 38.614C55.9711 39.4437 57.3773 39.4437 58.0023 38.614C58.9397 37.3732 60.3084 36.6638 61.7521 36.6638C64.4676 36.6638 66.6785 39.164 66.6785 42.2205C66.6644 43.9972 65.8176 45.4067 65.1067 46.2739Z" fill="#747474"/>
</g>
<defs>
<clipPath id="clip0">
<rect width="80" height="80" fill="white"/>
</clipPath>
</defs>
</svg>
