<svg width="80" height="75" viewBox="0 0 80 75" fill="none" xmlns="http://www.w3.org/2000/svg">
<g clip-path="url(#clip0)">
<path d="M21.2912 14.0573C22.6087 12.5077 23.3393 10.5445 23.3552 8.5109C23.3552 3.86902 19.4844 0 14.8387 0C10.1931 0 6.32227 3.86585 6.32227 8.5109C6.3363 10.5472 7.06701 12.5136 8.38629 14.0653C2.83883 16.3791 0 20.3703 0 25.6644C0 27.9877 0.516006 29.5334 1.67662 30.565C3.61204 32.2424 7.74168 31.4679 9.16109 31.2109C11.0376 30.8932 12.9357 30.7208 14.8387 30.6951C16.7418 30.7208 18.6399 30.8932 20.5164 31.2109C23.6124 31.7266 26.1941 32.1138 28.0009 30.5665C29.1615 29.6636 29.6775 27.9861 29.6775 25.6644C29.6775 20.3703 26.8323 16.3791 21.2912 14.0573ZM14.8387 2.70736C18.065 2.70736 20.7736 5.41631 20.7736 8.63944C20.7736 11.8626 18.065 14.5731 14.8387 14.5731C11.6125 14.5731 8.90388 11.8642 8.90388 8.64103C8.90388 5.4179 11.6125 2.70736 14.8387 2.70736ZM26.3227 28.6304C25.4193 29.4049 23.3552 29.0177 20.9038 28.6304C19.097 28.3734 17.033 27.9861 14.8387 27.9861C12.8001 27.989 10.7674 28.205 8.77369 28.6304C6.32227 29.1478 4.25824 29.4049 3.35483 28.6304C2.83883 28.2448 2.58162 27.2117 2.58162 25.7945C2.58162 21.0225 5.29025 17.9264 10.7107 16.114C11.981 16.792 13.3988 17.1466 14.8387 17.1466C16.2787 17.1466 17.6965 16.792 18.9668 16.114C24.3851 17.92 27.0948 21.1468 27.0959 25.7945C27.0975 27.2117 26.8323 28.2448 26.3227 28.6304Z" fill="#747474"/>
<path d="M71.6138 14.1811C72.9317 12.6323 73.6624 10.6694 73.6778 8.63626C73.6778 3.9928 69.807 0.123779 65.1614 0.123779C60.5157 0.123779 56.6449 3.9928 56.6449 8.63626C56.6605 10.6694 57.3911 12.6323 58.7089 14.1811C53.1615 16.5076 50.3306 20.5052 50.3306 25.7929C50.3306 28.1147 50.8466 29.6636 52.0088 30.6951C53.9442 32.3709 58.0722 31.5981 59.4917 31.3394C61.1699 31.0823 63.2339 30.8236 65.1693 30.8236C67.0723 30.8492 68.9705 31.0216 70.8469 31.3394C73.9446 31.8552 76.5246 32.2424 78.3314 30.6951C79.492 29.7921 80.008 28.1147 80.008 25.7929C80.0001 20.5052 77.1629 16.5076 71.6138 14.1811ZM65.1614 2.70736C68.3876 2.70736 71.0978 5.41631 71.0978 8.63944C71.0978 11.8626 68.3876 14.5731 65.1614 14.5731C61.9351 14.5731 59.2217 11.8642 59.2217 8.63944C59.2217 5.41472 61.9367 2.70736 65.1614 2.70736ZM76.6453 28.6304C75.7419 29.4049 73.6778 29.0177 71.2264 28.6304C69.4196 28.3734 67.3556 27.9861 65.1614 27.9861C63.1233 27.9889 61.091 28.2049 59.0979 28.6304C56.6465 29.0177 54.5809 29.2763 53.6775 28.6304C53.1615 28.2448 52.9042 27.2117 52.9042 25.7945C52.9042 21.0225 55.6129 17.9264 61.0333 16.114C62.3036 16.792 63.7214 17.1466 65.1614 17.1466C66.6014 17.1466 68.0192 16.792 69.2894 16.114C74.7077 17.92 77.4174 21.1468 77.4185 25.7945C77.4201 27.2117 77.1629 28.2448 76.6453 28.6304Z" fill="#747474"/>
<path d="M46.4517 57.3926C47.7712 55.841 48.502 53.8745 48.5157 51.8382C48.5157 47.1947 44.6449 43.3257 40.0009 43.3257C35.3568 43.3257 31.4844 47.1947 31.4844 51.8382C31.4981 53.8745 32.2289 55.841 33.5484 57.3926C28.0009 59.7143 25.1621 63.7118 25.1621 68.9996C25.1621 71.3213 25.6781 72.8686 26.8387 73.9002C28.7741 75.5776 32.9038 74.8032 34.3232 74.5461C35.9998 74.2874 38.0654 74.0287 40.0009 74.0287C42.0649 74.0287 44.0003 74.2874 45.6785 74.5461C48.7745 75.0618 51.3562 75.449 53.1614 73.9002C54.3236 72.9972 54.8396 71.3213 54.8396 68.9996C54.8396 63.7118 52.0008 59.7127 46.4517 57.3926ZM40.0009 45.9204C43.2255 45.9204 45.9357 48.6293 45.9357 51.854C45.9357 55.0788 43.2255 57.7861 40.0009 57.7861C36.7762 57.7861 34.0644 55.0788 34.0644 51.854C34.0644 48.6293 36.7746 45.9204 40.0009 45.9204ZM51.4848 71.9736C50.5813 72.748 48.5173 72.3608 46.0643 71.9736C44.2591 71.7165 42.1935 71.3293 40.0009 71.3293C37.9622 71.3313 35.9293 71.5472 33.9358 71.9736C31.4844 72.3608 29.4203 72.6179 28.5169 71.9736C28.0009 71.5864 27.7421 70.5548 27.7421 69.1361C27.7421 64.3641 30.4524 61.2695 35.8712 59.4635C37.1418 60.1405 38.5595 60.4946 39.9993 60.4946C41.4391 60.4946 42.8568 60.1405 44.1273 59.4635C49.5478 61.2695 52.2574 64.4937 52.2564 69.1361C52.258 70.5469 52.0008 71.4499 51.4848 71.9657V71.9736Z" fill="#747474"/>
<path d="M68.3876 33.6611C68.0002 43.4622 62.3225 52.4905 53.5488 57.2625L54.8396 59.5842C64.3881 54.425 70.4516 44.4922 70.9708 33.7897L68.3876 33.6611Z" fill="#747474"/>
<path d="M40.1293 1.41711C34.9495 1.41659 29.8506 2.70188 25.2905 5.15759L26.5813 7.47932C30.5808 5.15759 35.2264 3.99752 40.0007 3.99752C44.7413 3.97216 49.4081 5.17152 53.5486 7.47932L54.8394 5.15759C50.3254 2.70271 45.2682 1.41677 40.1293 1.41711Z" fill="#747474"/>
<path d="M11.6127 33.6611L9.03271 33.7897C9.29732 39.3701 11.0525 44.7778 14.1157 49.4507C17.1789 54.1237 21.4384 57.8912 26.4515 60.3618L27.6137 57.9116C18.1938 53.3935 12.1288 44.1081 11.6127 33.6611Z" fill="#747474"/>
</g>
<defs>
<clipPath id="clip0">
<rect width="80" height="75" fill="white"/>
</clipPath>
</defs>
</svg>
