<svg width="80" height="81" viewBox="0 0 80 81" fill="none" xmlns="http://www.w3.org/2000/svg">
<g clip-path="url(#clip0)">
<path d="M2.7703 5.60745C3.18364 5.47039 3.61626 5.40032 4.05175 5.39989H11.109V1.34997C11.109 0.991937 11.2513 0.648566 11.5046 0.395398C11.7579 0.142229 12.1014 0 12.4597 0L20.5637 0C20.9219 0 21.2654 0.142229 21.5187 0.395398C21.772 0.648566 21.9143 0.991937 21.9143 1.34997V5.39989H28.9716C29.6136 5.39984 30.2465 5.5523 30.8181 5.84471C31.3897 6.13711 31.8835 6.56109 32.2589 7.08169C32.6344 7.6023 32.8807 8.20463 32.9775 8.83904C33.0743 9.47345 33.019 10.1218 32.8159 10.7306L31.369 15.0691V18.8996H36.7717V1.34997C36.7717 0.991937 36.914 0.648566 37.1673 0.395398C37.4206 0.142229 37.7641 0 38.1223 0L46.2263 0C46.5845 0 46.9281 0.142229 47.1814 0.395398C47.4347 0.648566 47.577 0.991937 47.577 1.34997V18.8996H52.9797V10.7998H51.629C51.2708 10.7998 50.9272 10.6575 50.6739 10.4044C50.4206 10.1512 50.2783 9.80784 50.2783 9.4498V1.34997C50.2783 0.991937 50.4206 0.648566 50.6739 0.395398C50.9272 0.142229 51.2708 0 51.629 0L65.1357 0C65.4939 0 65.8374 0.142229 66.0907 0.395398C66.344 0.648566 66.4863 0.991937 66.4863 1.34997V9.4498C66.4863 9.80784 66.344 10.1512 66.0907 10.4044C65.8374 10.6575 65.4939 10.7998 65.1357 10.7998H63.785V18.9688C67.4688 19.2457 70.9709 20.6789 73.7912 23.0637C76.6116 25.4484 78.606 28.6628 79.4897 32.248C80.3733 35.8331 80.1011 39.6056 78.7119 43.0269C77.3227 46.4482 74.8874 49.3433 71.7539 51.2989H78.6423C79.0005 51.2989 79.3441 51.4412 79.5974 51.6943C79.8507 51.9475 79.993 52.2909 79.993 52.6489V74.2485C79.993 74.6065 79.8507 74.9499 79.5974 75.203C79.3441 75.4562 79.0005 75.5984 78.6423 75.5984H72.5356C71.4266 77.2597 69.9245 78.6217 68.1626 79.5638C66.4006 80.5058 64.4333 80.9986 62.4352 80.9986C60.437 80.9986 58.4697 80.5058 56.7078 79.5638C54.9459 78.6217 53.4438 77.2597 52.3347 75.5984H29.3143C28.2052 77.2597 26.7031 78.6217 24.9412 79.5638C23.1793 80.5058 21.212 80.9986 19.2138 80.9986C17.2157 80.9986 15.2484 80.5058 13.4865 79.5638C11.7245 78.6217 10.2224 77.2597 9.11337 75.5984H3.00498C2.64677 75.5984 2.30322 75.4562 2.04992 75.203C1.79662 74.9499 1.65432 74.6065 1.65432 74.2485V15.0691L0.207413 10.7306C0.039093 10.226 -0.0281296 9.69322 0.00957489 9.16267C0.0472794 8.63212 0.189178 8.11418 0.42717 7.63845C0.665161 7.16271 0.994583 6.73849 1.39662 6.39001C1.79866 6.04152 2.26543 5.77561 2.7703 5.60745ZM19.213 2.69994H13.8103V5.39989H19.213V2.69994ZM44.8757 2.69994H39.473V18.8996H44.8757V2.69994ZM63.785 2.69994H52.9797V8.09983H63.785V2.69994ZM55.681 10.7998V18.8996H61.0837V10.7998H55.681ZM77.2917 36.4492C77.2872 32.5122 75.7204 28.7377 72.9351 25.9539C70.1498 23.17 66.3734 21.604 62.4343 21.5996H31.369V51.2989H62.4343C66.3734 51.2945 70.1498 49.7285 72.9351 46.9446C75.7204 44.1607 77.2872 40.3863 77.2917 36.4492ZM62.4343 78.2984C64.3043 78.2984 66.1322 77.7441 67.6871 76.7058C69.2419 75.6674 70.4537 74.1916 71.1693 72.4649C71.8849 70.7381 72.0721 68.8381 71.7073 67.005C71.3425 65.1719 70.442 63.4881 69.1198 62.1665C67.7975 60.845 66.1129 59.945 64.2788 59.5803C62.4448 59.2157 60.5438 59.4029 58.8162 60.1181C57.0886 60.8333 55.6119 62.0445 54.5731 63.5985C53.5342 65.1525 52.9797 66.9796 52.9797 68.8486C52.9797 71.3548 53.9758 73.7584 55.7489 75.5306C57.522 77.3028 59.9268 78.2984 62.4343 78.2984ZM19.213 78.2984C21.0829 78.2984 22.9109 77.7441 24.4657 76.7058C26.0205 75.6674 27.2324 74.1916 27.948 72.4649C28.6636 70.7381 28.8508 68.8381 28.486 67.005C28.1212 65.1719 27.2207 63.4881 25.8984 62.1665C24.5762 60.845 22.8915 59.945 21.0575 59.5803C19.2235 59.2157 17.3225 59.4029 15.5948 60.1181C13.8672 60.8333 12.3906 62.0445 11.3517 63.5985C10.3128 65.1525 9.75832 66.9796 9.75832 68.8486C9.75832 71.3548 10.7544 73.7584 12.5275 75.5306C14.3006 77.3028 16.7055 78.2984 19.213 78.2984ZM4.35565 72.8985H7.76608C7.11041 71.0648 6.9053 69.1006 7.16802 67.1711C7.43074 65.2417 8.1536 63.4036 9.2757 61.8118C10.3978 60.22 11.8863 58.921 13.6157 58.0244C15.3451 57.1278 17.2648 56.6598 19.213 56.6598C21.1612 56.6598 23.0809 57.1278 24.8103 58.0244C26.5397 58.921 28.0282 60.22 29.1503 61.8118C30.2724 63.4036 30.9952 65.2417 31.258 67.1711C31.5207 69.1006 31.3156 71.0648 30.6599 72.8985H50.9874C50.3318 71.0648 50.1266 69.1006 50.3894 67.1711C50.6521 65.2417 51.3749 63.4036 52.497 61.8118C53.6191 60.22 55.1076 58.921 56.837 58.0244C58.5664 57.1278 60.4861 56.6598 62.4343 56.6598C64.3826 56.6598 66.3022 57.1278 68.0317 58.0244C69.7611 58.921 71.2495 60.22 72.3716 61.8118C73.4937 63.4036 74.2166 65.2417 74.4793 67.1711C74.742 69.1006 74.5369 71.0648 73.8812 72.8985H77.2917V53.9989H4.35565V72.8985ZM4.35565 51.2989H28.6677V16.1997H4.35565V51.2989ZM2.7703 9.87673L3.97915 13.4997H29.0442L30.253 9.87673C30.3207 9.67379 30.3391 9.45768 30.3069 9.24621C30.2746 9.03474 30.1925 8.83397 30.0674 8.66043C29.9422 8.4869 29.7776 8.34557 29.5871 8.2481C29.3965 8.15064 29.1856 8.09982 28.9716 8.09983H4.05175C3.83772 8.09982 3.62675 8.15064 3.43624 8.2481C3.24572 8.34557 3.0811 8.4869 2.95596 8.66043C2.8308 8.83397 2.74871 9.03474 2.71643 9.24621C2.68415 9.45768 2.70261 9.67379 2.7703 9.87673Z" fill="#747474"/>
<path d="M62.4347 63.4487C63.5033 63.4487 64.5478 63.7654 65.4363 64.3588C66.3248 64.9521 67.0172 65.7955 67.4261 66.7822C67.8351 67.7689 67.9421 68.8546 67.7336 69.9021C67.5251 70.9496 67.0106 71.9117 66.255 72.6669C65.4994 73.4221 64.5368 73.9364 63.4887 74.1448C62.4407 74.3531 61.3544 74.2462 60.3672 73.8375C59.38 73.4288 58.5362 72.7367 57.9426 71.8487C57.3489 70.9606 57.0321 69.9166 57.0321 68.8486C57.0321 67.4165 57.6013 66.043 58.6145 65.0303C59.6277 64.0176 61.0019 63.4487 62.4347 63.4487ZM62.4347 71.5486C62.969 71.5486 63.4913 71.3902 63.9355 71.0936C64.3797 70.7969 64.726 70.3752 64.9304 69.8819C65.1349 69.3885 65.1884 68.8456 65.0842 68.3219C64.9799 67.7982 64.7227 67.3171 64.3449 66.9395C63.9671 66.5619 63.4857 66.3047 62.9617 66.2006C62.4377 66.0964 61.8946 66.1498 61.401 66.3542C60.9074 66.5586 60.4855 66.9046 60.1887 67.3486C59.8918 67.7926 59.7334 68.3146 59.7334 68.8486C59.7334 69.5647 60.018 70.2514 60.5246 70.7578C61.0312 71.2641 61.7183 71.5486 62.4347 71.5486Z" fill="#747474"/>
<path d="M19.2131 63.4487C20.2816 63.4487 21.3261 63.7654 22.2146 64.3588C23.1031 64.9521 23.7956 65.7955 24.2045 66.7822C24.6134 67.7689 24.7204 68.8546 24.5119 69.9021C24.3034 70.9496 23.7889 71.9117 23.0333 72.6669C22.2777 73.4221 21.3151 73.9364 20.2671 74.1448C19.219 74.3531 18.1328 74.2462 17.1455 73.8375C16.1583 73.4288 15.3146 72.7367 14.7209 71.8487C14.1273 70.9606 13.8104 69.9166 13.8104 68.8486C13.8104 67.4165 14.3796 66.043 15.3928 65.0303C16.406 64.0176 17.7802 63.4487 19.2131 63.4487ZM19.2131 71.5486C19.7473 71.5486 20.2696 71.3902 20.7138 71.0936C21.1581 70.7969 21.5043 70.3752 21.7088 69.8819C21.9132 69.3885 21.9667 68.8456 21.8625 68.3219C21.7583 67.7982 21.501 67.3171 21.1232 66.9395C20.7454 66.5619 20.2641 66.3047 19.7401 66.2006C19.216 66.0964 18.6729 66.1498 18.1793 66.3542C17.6857 66.5586 17.2638 66.9046 16.967 67.3486C16.6702 67.7926 16.5117 68.3146 16.5117 68.8486C16.5117 69.5647 16.7963 70.2514 17.3029 70.7578C17.8095 71.2641 18.4966 71.5486 19.2131 71.5486Z" fill="#747474"/>
<path d="M9.75839 20.2496H23.2651C23.6233 20.2496 23.9668 20.3918 24.2201 20.645C24.4734 20.8981 24.6157 21.2415 24.6157 21.5995V35.0993C24.6157 35.4573 24.4734 35.8007 24.2201 36.0538C23.9668 36.307 23.6233 36.4492 23.2651 36.4492H9.75839C9.40017 36.4492 9.05662 36.307 8.80332 36.0538C8.55002 35.8007 8.40772 35.4573 8.40772 35.0993V21.5995C8.40772 21.2415 8.55002 20.8981 8.80332 20.645C9.05662 20.3918 9.40017 20.2496 9.75839 20.2496ZM11.1091 33.7493H21.9144V22.9495H11.1091V33.7493Z" fill="#747474"/>
</g>
<defs>
<clipPath id="clip0">
<rect width="80" height="81" fill="white" transform="matrix(-1 0 0 1 80 0)"/>
</clipPath>
</defs>
</svg>
